<?xml version="1.0" encoding="utf-8"?>
<!-- Generator: Adobe Illustrator 18.0.0, SVG Export Plug-In . SVG Version: 6.00 Build 0)  -->
<!DOCTYPE svg PUBLIC "-//W3C//DTD SVG 1.1//EN" "http://www.w3.org/Graphics/SVG/1.1/DTD/svg11.dtd">
<svg version="1.1" xmlns="http://www.w3.org/2000/svg" xmlns:xlink="http://www.w3.org/1999/xlink" x="0px" y="0px"
	 viewBox="200 0 560 560" enable-background="new 200 0 560 560" xml:space="preserve">
<g id="Layer_2">
</g>
<g id="Layer_1">
	<path fill="#55ACEE" d="M200,0v560h560V0H200z M620,210c0,1.8,0,5.3,0,8.8c0,92.8-73.5,201.3-208.3,201.3
		c-40.3,0-78.8-12.3-110.3-31.5c5.3,1.8,12.3,1.8,17.5,1.8c33.3,0,64.8-10.5,89.3-29.8c-31.5,0-57.8-21-66.5-49
		c5.3,1.8,8.8,1.8,14,1.8c7,0,14,0,19.3-1.8c-33.3-7-57.8-35-57.8-70c0-1.8,0-1.8,0-1.8c10.5,5.3,21,8.8,33.3,8.8
		c-19.3-14-31.5-35-31.5-59.5c0-14,3.5-26.3,8.8-36.8c36.8,42,89.3,70,148.8,73.5c-1.8-5.3-1.8-10.5-1.8-15.8
		c0-38.5,31.5-70,71.8-70c21,0,40.3,8.8,52.5,22.8c15.8-3.5,31.5-8.8,45.5-17.5c-5.3,15.8-15.8,29.8-31.5,38.5
		c15.8-1.8,29.8-5.3,42-10.5C644.5,187.3,632.3,199.5,620,210z"/>
</g>
</svg>
