<?xml version="1.0" encoding="utf-8"?>
<!-- Generator: Adobe Illustrator 18.0.0, SVG Export Plug-In . SVG Version: 6.00 Build 0)  -->
<!DOCTYPE svg PUBLIC "-//W3C//DTD SVG 1.1//EN" "http://www.w3.org/Graphics/SVG/1.1/DTD/svg11.dtd">
<svg version="1.1" id="Layer_1" xmlns="http://www.w3.org/2000/svg" xmlns:xlink="http://www.w3.org/1999/xlink" x="0px" y="0px"
	 viewBox="0 0 67 67" enable-background="new 0 0 67 67" xml:space="preserve">
<g>
	<path fill="#CF3427" d="M31.2,47.7c-0.2,0.2-0.4,0.4-0.6,0.5c-0.2,0.1-0.4,0.2-0.5,0.2c-0.2,0-0.3-0.1-0.4-0.2
		c-0.1-0.1-0.1-0.3-0.1-0.5v-7.6h-1.9v8.3c0,0.6,0.1,1,0.3,1.3c0.2,0.3,0.6,0.4,1,0.4c0.4,0,0.7-0.1,1.1-0.3
		c0.4-0.2,0.8-0.5,1.1-0.9v1.1h1.9v-9.9h-1.9V47.7z"/>
	<path fill="#CF3427" d="M32.9,26.6c0.3,0,0.5-0.1,0.7-0.2c0.2-0.2,0.3-0.4,0.3-0.7v-5.9c0-0.2-0.1-0.4-0.3-0.6
		c-0.2-0.1-0.4-0.2-0.7-0.2c-0.3,0-0.5,0.1-0.7,0.2c-0.2,0.1-0.3,0.3-0.3,0.6v5.9c0,0.3,0.1,0.5,0.2,0.7
		C32.4,26.5,32.6,26.6,32.9,26.6z"/>
	<polygon fill="#CF3427" points="20,38.6 22.3,38.6 22.3,50.1 24.5,50.1 24.5,38.6 26.7,38.6 26.7,36.7 20,36.7 	"/>
	<path fill="#CF3427" d="M44.2,40c-0.9,0-1.6,0.3-2.1,0.8c-0.6,0.5-0.8,1.2-0.8,2.1v4.5c0,1,0.3,1.7,0.8,2.2
		c0.5,0.5,1.2,0.8,2.1,0.8c1,0,1.7-0.3,2.2-0.8c0.5-0.5,0.7-1.3,0.7-2.3v-0.5h-2v0.5c0,0.6-0.1,1-0.2,1.1c-0.1,0.2-0.4,0.3-0.7,0.3
		c-0.3,0-0.5-0.1-0.7-0.3c-0.1-0.2-0.2-0.6-0.2-1.1v-1.9H47v-2.5c0-0.9-0.2-1.7-0.7-2.2C45.8,40.2,45.1,40,44.2,40z M45,43.9h-1.7
		v-1c0-0.4,0.1-0.7,0.2-0.9c0.1-0.2,0.4-0.3,0.7-0.3c0.3,0,0.5,0.1,0.6,0.3c0.1,0.2,0.2,0.5,0.2,0.9V43.9z"/>
	<path fill="#CF3427" d="M0,0v67h67V0H0z M37.9,17.3h2.2v8.4c0,0.3,0.1,0.4,0.1,0.6c0.1,0.1,0.2,0.2,0.4,0.2c0.2,0,0.4-0.1,0.6-0.2
		c0.2-0.2,0.5-0.3,0.7-0.6v-8.3h2.2v10.9h-2.2V27c-0.4,0.4-0.8,0.8-1.3,1c-0.4,0.2-0.9,0.3-1.3,0.3c-0.5,0-0.9-0.2-1.1-0.5
		c-0.3-0.3-0.4-0.8-0.4-1.5V17.3z M29.7,19.8c0-0.8,0.3-1.5,0.9-2C31.2,17.3,32,17,33,17c0.9,0,1.7,0.3,2.2,0.8
		c0.6,0.5,0.9,1.2,0.9,2v5.6c0,0.9-0.3,1.7-0.9,2.2c-0.6,0.5-1.4,0.8-2.4,0.8c-1,0-1.7-0.3-2.3-0.8c-0.6-0.5-0.9-1.3-0.9-2.2V19.8z
		 M23.7,13.4l1.6,5.9h0.2l1.5-5.9h2.5l-2.9,8.7v6.1h-2.5v-5.9l-2.9-8.9H23.7z M48.6,53.1c-1.6,1.6-15.1,1.6-15.1,1.6
		s-13.5,0-15.1-1.6c-1.6-1.6-1.6-9.5-1.6-9.6c0,0,0-8,1.6-9.6c1.6-1.6,15.1-1.6,15.1-1.6c0,0,13.5,0,15.1,1.6
		c1.6,1.6,1.6,9.5,1.6,9.6C50.2,43.5,50.2,51.5,48.6,53.1z"/>
	<path fill="#CF3427" d="M38.3,40.1c-0.3,0-0.6,0.1-0.9,0.2c-0.3,0.2-0.6,0.4-0.8,0.7v-4.3h-2v13.4h2v-0.8c0.3,0.3,0.5,0.5,0.8,0.7
		c0.3,0.1,0.6,0.2,1,0.2c0.6,0,1-0.2,1.3-0.6c0.3-0.4,0.5-0.9,0.5-1.6v-5.5c0-0.8-0.2-1.4-0.5-1.9C39.4,40.3,39,40.1,38.3,40.1z
		 M38.2,47.8c0,0.3-0.1,0.5-0.2,0.7c-0.1,0.1-0.3,0.2-0.5,0.2c-0.2,0-0.3,0-0.5-0.1c-0.2-0.1-0.3-0.2-0.5-0.3v-6.2
		c0.1-0.1,0.3-0.2,0.4-0.3c0.1-0.1,0.3-0.1,0.4-0.1c0.3,0,0.5,0.1,0.6,0.3c0.1,0.2,0.2,0.4,0.2,0.8V47.8z"/>
</g>
</svg>
