<?xml version="1.0" standalone="no"?>
<!DOCTYPE svg PUBLIC "-//W3C//DTD SVG 1.1//EN" "http://www.w3.org/Graphics/SVG/1.1/DTD/svg11.dtd" >
<svg xmlns="http://www.w3.org/2000/svg" xmlns:xlink="http://www.w3.org/1999/xlink" version="1.1">
<metadata></metadata>
<defs>
<font id="world_of_waterregular" horiz-adv-x="1206" >
<font-face units-per-em="2048" ascent="1556" descent="-492" />
<missing-glyph horiz-adv-x="516" />
<glyph unicode="&#x28;C&#x29;" horiz-adv-x="1558" d="M90 717q0 156 48 291t138.5 235t218.5 157.5t285 57.5q158 0 285 -57.5t217 -157.5t138 -235.5t48 -290.5q0 -156 -48 -291t-138 -235.5t-217 -158t-285 -57.5t-285.5 57.5t-218 158t-138.5 235.5t-48 291zM285 717q0 -272 128.5 -418.5t366.5 -146.5q236 0 365 146 t129 419q0 272 -129 417.5t-365 145.5q-238 0 -366.5 -145.5t-128.5 -417.5zM463 715q0 100 29.5 174t82 122t123 71.5t150.5 23.5q33 0 63.5 -4t57.5 -8v-123q-23 6 -48.5 9t-62.5 3q-117 0 -182.5 -62.5t-65.5 -201.5q0 -123 65.5 -178.5t184.5 -55.5q37 0 63.5 3.5 t49.5 9.5v-123q-27 -4 -58.5 -8.5t-64.5 -4.5q-80 0 -150.5 19.5t-123 61.5t-83 108.5t-30.5 163.5z" />
<glyph unicode="&#x28;R&#x29;" horiz-adv-x="1558" d="M90 717q0 156 48 291t138.5 235t218.5 157.5t285 57.5q158 0 285 -57.5t217 -157.5t138 -235.5t48 -290.5q0 -156 -48 -291t-138 -235.5t-217 -158t-285 -57.5t-285.5 57.5t-218 158t-138.5 235.5t-48 291zM285 717q0 -272 128.5 -418.5t366.5 -146.5q236 0 365 146 t129 419q0 272 -129 417.5t-365 145.5q-238 0 -366.5 -145.5t-128.5 -417.5zM516 375v475q0 111 59.5 183.5t202.5 72.5q106 0 180 -58.5t74 -177.5q0 -57 -29.5 -108t-82.5 -84q18 -14 35.5 -33.5t31.5 -52.5t24.5 -85t14.5 -132h-147q-8 111 -24.5 171t-51.5 95 q-53 0 -86 7t-55 22v-295h-146zM662 805q25 -31 56.5 -45.5t65.5 -14.5q51 0 80 36t29 89q0 66 -32 95.5t-79 29.5q-57 0 -88.5 -34.5t-31.5 -110.5v-45z" />
<glyph horiz-adv-x="0" />
<glyph unicode="&#xd;" horiz-adv-x="516" />
<glyph horiz-adv-x="516" />
<glyph unicode=" "  horiz-adv-x="516" />
<glyph unicode="&#x09;" horiz-adv-x="516" />
<glyph unicode="&#xa0;" horiz-adv-x="516" />
<glyph unicode="!" horiz-adv-x="567" d="M127 147q0 72 43 120t115 48q70 0 112.5 -48t42.5 -120t-42.5 -122t-114.5 -50q-70 0 -113 50.5t-43 121.5zM137 457v977h291v-977h-291z" />
<glyph unicode="&#x22;" horiz-adv-x="925" d="M92 918v516h248v-516h-248zM92 918zM586 918v516h248v-516h-248z" />
<glyph unicode="#" horiz-adv-x="1200" d="M61 360v162h205l82 396h-229v163h262l72 353h151l-74 -353h295l74 353h150l-74 -353h162v-163h-197l-84 -396h227v-162h-260l-75 -360h-144l74 360h-295l-74 -360h-147l71 360h-172zM416 522h295l82 396h-295z" />
<glyph unicode="$" horiz-adv-x="1067" d="M86 897q0 61 29.5 111.5t82 88.5t125 62.5t158.5 36.5v236h144v-224h18q63 0 124.5 -5t125.5 -15v-221q-53 10 -123 15t-166 5q-111 0 -176.5 -13t-65.5 -67q0 -27 20.5 -39t86.5 -24q98 -16 189.5 -36t168.5 -46q80 -29 117 -93.5t37 -136.5q0 -84 -29.5 -142t-79 -97 t-114 -61.5t-133.5 -34.5v-197h-144v180h-75q-106 0 -185.5 6.5t-132.5 16.5v229q55 -10 134 -17t188 -7q147 0 224 22.5t77 75.5q0 29 -20.5 47t-67.5 31q-47 12 -100.5 21t-108 20.5t-106.5 26t-97 36.5q-59 31 -92 77t-33 132z" />
<glyph unicode="%" horiz-adv-x="1845" d="M90 0zM90 1067q0 86 24.5 160.5t70.5 130t110.5 87t146.5 31.5q80 0 145.5 -31.5t110.5 -87t69.5 -130t24.5 -160.5t-24.5 -161t-69.5 -131t-110.5 -88t-145.5 -32q-82 0 -146.5 32t-110.5 88t-70.5 131t-24.5 161zM254 0l1128 1434h219l-1130 -1434h-217zM278 1067 q0 -125 43 -193.5t121 -68.5t122 68.5t44 193.5q0 123 -44 191.5t-122 68.5t-121 -68.5t-43 -191.5zM1053 377q0 86 24.5 160.5t70.5 130t110.5 87t146.5 31.5q80 0 145.5 -31.5t110.5 -87t69.5 -130t24.5 -160.5t-24.5 -161t-69.5 -131t-110.5 -88t-145.5 -32 q-82 0 -146.5 32t-110.5 88t-70.5 131t-24.5 161zM1241 377q0 -125 43 -193.5t121 -68.5t122 68.5t44 193.5q0 123 -44 191.5t-122 68.5t-121 -68.5t-43 -191.5z" />
<glyph unicode="&#x26;" horiz-adv-x="1361" d="M70 428q0 135 84 260t260 203q-43 70 -58.5 130t-15.5 116q0 145 108.5 233t290.5 88q61 0 102.5 -1t70 -4t49 -6t38.5 -5v-219q-23 4 -44 7t-45.5 5t-55.5 3t-76 1q-92 0 -130 -27.5t-38 -81.5q0 -33 14.5 -73.5t49.5 -89.5l661 -967h-317l-70 102q-68 -59 -164 -93 t-237 -34q-109 0 -196 36t-150.5 97.5t-97 143.5t-33.5 176zM354 442q0 -104 66.5 -171.5t187.5 -67.5q129 0 215 82l-288 428l2 -4q-94 -41 -138.5 -101.5t-44.5 -165.5z" />
<glyph unicode="'" horiz-adv-x="432" d="M92 918v516h248v-516h-248z" />
<glyph unicode="(" horiz-adv-x="800" d="M135 596q0 160 17.5 298t58.5 264t108.5 244t165.5 238h275q-100 -131 -165 -245.5t-101.5 -234.5t-51 -255t-14.5 -309t14.5 -309t51 -255t101 -234.5t165.5 -246.5h-275q-98 119 -165.5 238t-108.5 245t-58.5 264t-17.5 298z" />
<glyph unicode=")" horiz-adv-x="800" d="M41 -449q100 131 164.5 246t101.5 235t51.5 255t14.5 309t-14.5 309t-51.5 255t-101.5 234.5t-164.5 245.5h274q98 -121 166 -238.5t109 -243.5t58.5 -264t17.5 -298t-17.5 -298t-58.5 -264t-108.5 -245t-166.5 -238h-274z" />
<glyph unicode="*" horiz-adv-x="1112" d="M68 1010l59 178l352 -133l-18 379h186l-16 -377l354 135l57 -180l-364 -99l240 -295l-154 -110l-207 317l-209 -319l-149 110l235 295z" />
<glyph unicode="+" horiz-adv-x="1476" d="M123 659v207h512v510h207v-510h512v-207h-512v-514h-207v514h-512z" />
<glyph unicode="," horiz-adv-x="552" d="M98 -182q41 59 64.5 105t36.5 93q-43 23 -63.5 62t-20.5 80q0 66 48 110.5t113 44.5q72 0 113 -49t41 -117q0 -147 -149 -329h-183z" />
<glyph unicode="-" horiz-adv-x="561" d="M51 553v205h459v-205h-459z" />
<glyph unicode="." horiz-adv-x="559" d="M123 147q0 72 43 120t115 48q70 0 112.5 -48t42.5 -120t-42.5 -122t-114.5 -50q-70 0 -113 50.5t-43 121.5z" />
<glyph unicode="/" horiz-adv-x="888" d="M51 -168l527 1602h260l-529 -1602h-258z" />
<glyph unicode="0" horiz-adv-x="1445" d="M90 717q0 156 44 291t127 235t200 157.5t262 57.5t262 -57.5t200 -157.5t127 -235.5t44 -290.5q0 -156 -44 -291t-127 -235.5t-200 -158t-262 -57.5t-262 57.5t-200 158t-127 235.5t-44 291zM393 717q0 -244 86 -376t244 -132t244 132t86 376t-86 376t-244 132t-244 -132 t-86 -376z" />
<glyph unicode="1" horiz-adv-x="718" d="M41 1190v244h195q106 0 175.5 -21.5t110.5 -62.5t57.5 -102.5t16.5 -143.5v-1104h-289v1077q0 53 -24.5 83t-79.5 30h-162z" />
<glyph unicode="2" horiz-adv-x="1255" d="M123 0v367q0 135 43 215t123 125q35 20 90 40.5t115.5 42t119 42t101.5 40.5q78 37 107.5 77t29.5 112q0 70 -61.5 111.5t-223.5 41.5q-123 0 -223 -14t-201 -43v244q45 14 90.5 24.5t95.5 17.5t109.5 11t132.5 4q131 0 237.5 -28.5t182.5 -80t117 -123t41 -155.5 q0 -127 -34 -201.5t-118 -132.5q-43 -31 -94 -56.5t-103 -48t-100.5 -41t-85.5 -32.5q-117 -43 -158.5 -95t-41.5 -136v-84h690v-244h-981z" />
<glyph unicode="3" horiz-adv-x="1118" d="M96 10v226q31 -4 60.5 -10.5t64.5 -11.5t78 -9t102 -4q102 0 169 18.5t105 52t53 79.5t15 104q0 115 -76.5 155.5t-215.5 40.5h-199v219h174q119 0 181.5 48.5t62.5 134.5q0 33 -12.5 66.5t-42 60t-81 43t-126.5 16.5q-102 0 -181.5 -10t-130.5 -27v219q57 16 133 26.5 t199 10.5q131 0 229.5 -30.5t165 -84t99 -123t32.5 -149.5q0 -96 -49 -175t-127 -105q55 -12 100.5 -43t79 -74t52 -98.5t18.5 -116.5q0 -88 -38 -174t-112.5 -155t-188.5 -112t-267 -43q-129 0 -200.5 12.5t-125.5 22.5z" />
<glyph unicode="4" horiz-adv-x="1212" d="M53 553v184l672 697h244v-680h196v-201h-196v-553h-291v553h-625zM373 754h305v317z" />
<glyph unicode="5" horiz-adv-x="1208" d="M111 1063v371h958v-244h-670v-127q0 -49 16.5 -71.5t69.5 -41.5q111 -33 184.5 -55.5t126 -40.5t91.5 -37.5t84 -46.5q76 -45 120 -136t44 -212q0 -90 -35 -171t-108.5 -142.5t-189.5 -97.5t-278 -36q-156 0 -245 9.5t-152 25.5v244q59 -12 145 -23.5t222 -11.5 q102 0 168.5 13.5t105.5 40t54.5 63.5t15.5 86q0 45 -7.5 76.5t-23.5 54t-43 39t-66 33.5q-41 16 -94 33.5t-108.5 34t-107.5 33.5t-89 36q-98 47 -143 113.5t-45 187.5z" />
<glyph unicode="6" horiz-adv-x="1228" d="M111 485v949h290v-562q45 29 105.5 45.5t140.5 16.5q113 0 203 -40t154.5 -107.5t99.5 -153.5t35 -178q0 -117 -39 -206t-107.5 -150.5t-161 -92.5t-196.5 -31q-143 0 -242.5 39t-162 106.5t-91 161t-28.5 203.5zM401 485q0 -152 63.5 -220t178.5 -68q94 0 156.5 65.5 t62.5 192.5q0 119 -57 188.5t-158 69.5q-68 0 -131 -29t-115 -94v-105z" />
<glyph unicode="7" horiz-adv-x="1095" d="M45 1190v244h1020v-179l-625 -1255h-303l608 1190h-700z" />
<glyph unicode="8" horiz-adv-x="1216" d="M68 379q0 63 25.5 122.5t67.5 108.5t95 86t109 58q-98 45 -156.5 131t-58.5 194q0 82 33.5 151.5t94 121t144.5 79t186 27.5q100 0 185.5 -27.5t145.5 -79t94 -121t34 -151.5q0 -109 -58.5 -194.5t-156.5 -130.5q55 -20 108.5 -57.5t95.5 -86.5t67.5 -108.5t25.5 -122.5 q0 -182 -136 -293t-405 -111q-268 0 -404 111t-136 293zM354 422q0 -86 60.5 -143.5t193.5 -57.5t193.5 57.5t60.5 143.5q0 92 -63.5 150.5t-190.5 91.5q-127 -33 -190.5 -91.5t-63.5 -150.5zM430 1079q0 -86 48 -137t130 -78q82 27 130 78t48 137q0 76 -53 119t-125 43 t-125 -43t-53 -119z" />
<glyph unicode="9" horiz-adv-x="1232" d="M90 979q0 117 39 206t107.5 150.5t160.5 92t197 30.5q143 0 242.5 -39t162 -106.5t91 -160.5t28.5 -204v-948h-291v561q-45 -29 -106.5 -45t-138.5 -16q-113 0 -203 40t-154.5 107.5t-99.5 153.5t-35 178zM367 979q0 -119 57 -188.5t158 -69.5q68 0 131 28.5t114 92.5 v106q0 152 -63.5 220.5t-177.5 68.5q-94 0 -156.5 -65.5t-62.5 -192.5z" />
<glyph unicode=":" horiz-adv-x="559" d="M123 147q0 72 43 120t115 48q70 0 112.5 -48t42.5 -120t-42.5 -122t-114.5 -50q-70 0 -113 50.5t-43 121.5zM123 836q0 72 43 120t115 48q70 0 112.5 -48.5t42.5 -119.5q0 -72 -42.5 -122t-114.5 -50q-70 0 -113 50t-43 122z" />
<glyph unicode=";" horiz-adv-x="552" d="M98 -182q41 59 64.5 105t36.5 93q-43 23 -63.5 62t-20.5 80q0 66 48 110.5t113 44.5q72 0 113 -49t41 -117q0 -147 -149 -329h-183zM117 836q0 72 43 120t114 48q70 0 113 -48.5t43 -119.5q0 -72 -43 -122t-115 -50q-70 0 -112.5 50t-42.5 122z" />
<glyph unicode="&#x3c;" horiz-adv-x="1476" d="M123 625v276l1231 436v-227l-1012 -348l1012 -346v-228z" />
<glyph unicode="=" horiz-adv-x="1476" d="M123 414v207h1231v-207h-1231zM123 905v207h1231v-207h-1231z" />
<glyph unicode="&#x3e;" horiz-adv-x="1476" d="M123 188v228l1012 346l-1012 348v227l1231 -436v-276z" />
<glyph unicode="?" horiz-adv-x="950" d="M18 1182v231q59 16 156.5 30.5t233.5 14.5q143 0 243.5 -28.5t163 -75.5t91 -108.5t28.5 -129.5q0 -109 -35 -177.5t-82 -113.5q-31 -29 -68.5 -56.5t-75.5 -53t-71 -48t-53 -40.5q-37 -35 -47 -63.5t-10 -84.5v-22h-267v47q0 86 16.5 141t63.5 103q20 20 50 40.5t64 42 t68.5 42t65.5 42.5q31 20 49.5 39t29.5 38.5t15 42t4 55.5q0 27 -15 51t-46 43.5t-79 31t-116 11.5q-125 0 -213 -14.5t-164 -30.5zM207 147q0 72 43 120t115 48q70 0 112.5 -48t42.5 -120t-43 -122t-115 -50q-70 0 -112.5 50.5t-42.5 121.5z" />
<glyph unicode="@" horiz-adv-x="1464" d="M90 375q0 207 54.5 360.5t154.5 255t244.5 150.5t324.5 49q113 0 206 -27.5t159.5 -84t103.5 -140.5t37 -197v-348q0 -195 -102.5 -290t-274.5 -95q-182 0 -283.5 106.5t-101.5 295.5q0 174 98.5 272t258.5 98q80 0 132 -27.5t87 -64.5v49q0 104 -78 179t-233 75 q-254 0 -391.5 -149.5t-137.5 -454.5q0 -150 47 -263.5t133 -189t208 -113.5t272 -38q66 0 112.5 2t82.5 6t62.5 10t49.5 13v-238q-49 -10 -122 -17.5t-185 -7.5q-444 0 -681 205t-237 619zM825 393q0 -111 47 -166t127 -55t127.5 55.5t47.5 165.5q0 111 -47.5 166 t-127.5 55t-127 -55t-47 -166z" />
<glyph unicode="A" horiz-adv-x="1286" d="M10 0l504 1434h256l504 -1434h-1264zM389 244h498l-248 790z" />
<glyph unicode="B" horiz-adv-x="1189" d="M115 485v916q82 25 174 41t182 16q104 0 192.5 -23.5t152 -69.5t99 -114.5t35.5 -156.5q0 -135 -96 -246q74 -20 128 -61.5t90 -95.5t53.5 -117.5t17.5 -129.5q0 -104 -39 -191t-107.5 -148.5t-161 -95.5t-196.5 -34q-143 0 -242.5 39t-162 106.5t-91 161t-28.5 203.5z M406 485q0 -152 63 -220t178 -68q47 0 87 19.5t70 52t46 76.5t16 91q0 211 -198 258q-53 -35 -119 -65.5t-143 -63.5v-80zM406 801q80 29 131 64.5t81.5 72.5t42 74t11.5 69q0 78 -45 119t-127 41q-29 0 -53.5 -2t-40.5 -10v-428z" />
<glyph unicode="C" horiz-adv-x="1189" d="M90 678q0 199 60.5 345t165 243.5t244.5 144.5t298 47q66 0 128.5 -7t111.5 -17v-246q-43 12 -94.5 19t-122.5 7q-233 0 -364.5 -126.5t-131.5 -399.5q0 -246 131 -357.5t369 -111.5q72 0 125 7t96 20v-246q-49 -10 -113.5 -17.5t-130.5 -7.5q-160 0 -301 39t-245.5 123 t-165 217t-60.5 324z" />
<glyph unicode="D" horiz-adv-x="1331" d="M123 33v1368q94 29 197.5 43t261.5 14q324 0 491.5 -198.5t167.5 -554.5q0 -145 -40 -277.5t-121 -233t-205.5 -160t-292.5 -59.5q-158 0 -261.5 14.5t-197.5 43.5zM414 219q16 -6 47 -12t78 -6q125 0 202.5 43t122.5 117.5t61.5 174t16.5 212.5q0 238 -91 361.5 t-312 123.5q-47 0 -78 -6t-47 -13v-995z" />
<glyph unicode="E" horiz-adv-x="1157" d="M123 0v1434h954v-244h-663v-170h645v-232h-645v-544h667v-244h-958z" />
<glyph unicode="F" horiz-adv-x="1095" d="M123 0v1434h930v-244h-639v-172h624v-215h-624v-803h-291z" />
<glyph unicode="G" horiz-adv-x="1302" d="M90 672q0 186 50 331.5t145.5 247t232.5 154.5t313 53q66 0 130.5 -9t113.5 -19v-244q-35 10 -99.5 19t-133.5 9q-102 0 -186.5 -26.5t-143.5 -90t-93 -168t-34 -257.5q0 -223 80 -338t215 -115q61 0 112.5 25.5t86 70.5t54 107.5t19.5 136.5t-9 115t-23 69h-320v236h526 q35 -43 65 -134t30 -251q0 -115 -30 -225.5t-95.5 -197.5t-174 -141.5t-264.5 -54.5q-125 0 -229 55.5t-179 150.5t-117 221t-42 270z" />
<glyph unicode="H" horiz-adv-x="1310" d="M123 0v1434h291v-455h483v455h291v-1434h-291v754h-483v-754h-291z" />
<glyph unicode="I" horiz-adv-x="536" d="M123 0v1434h291v-1434h-291z" />
<glyph unicode="J" horiz-adv-x="851" d="M37 2v244q43 -12 91 -19.5t118 -7.5q111 0 158 53.5t47 133.5v1028h290v-1000q0 -221 -119.5 -340t-365.5 -119q-68 0 -126 8.5t-93 18.5z" />
<glyph unicode="K" horiz-adv-x="1253" d="M123 0v1434h291v-582q35 12 70.5 20.5t76.5 14.5l285 547h325l-321 -553q74 -16 126 -49t86 -85.5t53.5 -124t29.5 -163.5q16 -137 20 -242.5t4 -216.5h-292q0 86 -3.5 199.5t-15.5 220.5q-16 137 -64.5 187t-138.5 50q-72 0 -130 -7t-111 -23v-627h-291z" />
<glyph unicode="L" horiz-adv-x="1060" d="M123 330v1104h289v-1078q0 -53 24.5 -82.5t79.5 -29.5h510v-244h-543q-106 0 -175.5 20.5t-110.5 62.5t-57.5 103.5t-16.5 143.5z" />
<glyph unicode="M" horiz-adv-x="1505" d="M119 0v1434h307l332 -641l332 641h296v-1434h-264v946l-368 -696l-365 696v-946h-270z" />
<glyph unicode="N" horiz-adv-x="1304" d="M117 0v1434h295l520 -879v879h256v-1434h-238l-571 946v-946h-262z" />
<glyph unicode="O" horiz-adv-x="1200" d="M78 930q0 115 39 211t108.5 166.5t165.5 110.5t209 40t209 -40t165.5 -110.5t108.5 -167t39 -210.5q0 -115 -39 -211t-108.5 -167t-165.5 -111t-209 -40t-209 40t-165.5 111t-108.5 167t-39 211zM145 0v244h910v-244h-910zM369 930q0 -63 16 -117.5t46 -93.5t73 -61.5 t96 -22.5t96 22.5t73 61.5t46 93t16 118q0 63 -16 117.5t-46 93.5t-73 61.5t-96 22.5t-96 -22.5t-73 -61.5t-46 -93.5t-16 -117.5z" />
<glyph unicode="P" horiz-adv-x="1200" d="M117 0v948q0 111 28.5 204t91 160.5t162 106.5t242.5 39q104 0 196.5 -30.5t161 -92t107.5 -150.5t39 -206q0 -92 -35 -178t-99.5 -153.5t-154.5 -107.5t-203 -40q-80 0 -140 16t-105 45v-561h-291zM408 842q51 -63 114.5 -92t130.5 -29q100 0 157.5 69.5t57.5 188.5 q0 127 -62.5 192.5t-156.5 65.5q-115 0 -178 -68.5t-63 -220.5v-106z" />
<glyph unicode="Q" horiz-adv-x="1159" d="M57 930q0 115 39 211t108.5 166.5t166 110.5t209.5 40t209 -40t165.5 -110.5t108.5 -167t39 -210.5q0 -96 -27.5 -179t-78 -149.5t-120 -114t-153.5 -69.5v-412q0 -80 32.5 -133t110.5 -53q49 0 83 7t65 19v-243q-29 -10 -77 -18.5t-103 -8.5q-205 0 -303.5 119 t-98.5 340v385q-84 23 -152.5 70t-117.5 112.5t-77 148.5t-28 179zM348 930q0 -63 16.5 -117.5t46 -93.5t73 -61.5t96.5 -22.5t96 22.5t72.5 61.5t46 93t16.5 118q0 63 -16.5 117.5t-46 93.5t-72.5 61.5t-96 22.5t-96.5 -22.5t-73 -61.5t-46 -93.5t-16.5 -117.5z" />
<glyph unicode="R" horiz-adv-x="1226" d="M123 0v948q0 111 28.5 204t91 160.5t162 106.5t242.5 39q104 0 196.5 -29.5t161 -88t107.5 -145.5t39 -204q0 -115 -58.5 -218t-162.5 -167q35 -29 69.5 -67.5t63.5 -106t49.5 -171t28.5 -261.5h-295q-6 111 -18.5 195t-31 146t-44 108.5t-58.5 82.5h-35q-80 0 -140 16.5 t-105 45.5v-594h-291zM414 862q51 -63 114.5 -92t130.5 -29q100 0 157.5 70t57.5 180q0 127 -62 186.5t-157 59.5q-115 0 -178 -68.5t-63 -220.5v-86z" />
<glyph unicode="S" horiz-adv-x="1126" d="M72 1042q0 106 48 185.5t132 130.5t196.5 75.5t243.5 24.5q72 0 140.5 -5t138.5 -19v-244q-131 27 -269 27q-166 0 -264 -36t-98 -124q0 -53 45 -88t115 -66q49 -23 104 -43t112.5 -43.5t111 -51.5t100.5 -63q66 -49 103.5 -117.5t37.5 -166.5q0 -143 -64.5 -230.5 t-163 -134.5t-217 -62.5t-229.5 -15.5q-78 0 -164 5.5t-157 19.5v246q66 -16 146.5 -22.5t172.5 -6.5q199 0 299.5 44t100.5 161q0 49 -30 84t-77 61q-49 27 -112.5 49.5t-131 47t-132 54.5t-115.5 70q-55 45 -89 106.5t-34 147.5z" />
<glyph unicode="T" horiz-adv-x="1142" d="M29 1190v244h1085v-244h-397v-1190h-291v1190h-397z" />
<glyph unicode="U" horiz-adv-x="1269" d="M113 432v1002h290v-1002q0 -111 56.5 -168t179.5 -57t181.5 54t58.5 171v1002h278v-1002q0 -104 -40 -189t-109.5 -144.5t-164.5 -91.5t-206 -32q-117 0 -214 32t-166 91.5t-106.5 144.5t-37.5 189z" />
<glyph unicode="V" horiz-adv-x="1265" d="M10 1434h316l313 -1006l309 1006h305l-483 -1434h-274z" />
<glyph unicode="W" horiz-adv-x="1759" d="M16 1434h308l276 -1055l166 467l-227 588h262l82 -267l84 267h252l-220 -574l172 -481l273 1055h297l-406 -1434h-260l-196 553l-195 -553h-260z" />
<glyph unicode="X" horiz-adv-x="1277" d="M14 0l451 770l-381 664h330l239 -433l242 433h309l-393 -656l451 -778h-336l-305 541l-291 -541h-316z" />
<glyph unicode="Y" d="M0 1434h342l276 -512l265 512h321l-450 -799v-635h-293v633z" />
<glyph unicode="Z" horiz-adv-x="1249" d="M57 0v213l674 977h-610v244h993v-185l-678 -1005h754v-244h-1133z" />
<glyph unicode="[" horiz-adv-x="753" d="M205 -449v2089h508v-190h-246v-1702h246v-197h-508z" />
<glyph unicode="\" horiz-adv-x="888" d="M51 1434h260l527 -1602h-258z" />
<glyph unicode="]" horiz-adv-x="753" d="M41 -252h246v1702h-246v190h508v-2089h-508v197z" />
<glyph unicode="^" horiz-adv-x="874" d="M51 737l248 697h276l246 -697h-221l-164 477l-164 -477h-221z" />
<glyph unicode="_" horiz-adv-x="962" d="M-2 -82h967v-203h-967v203z" />
<glyph unicode="`" horiz-adv-x="622" d="M23 1505h309l268 -452h-242z" />
<glyph unicode="a" d="M90 522q0 111 34 200t95.5 151.5t146.5 96.5t189 34t174 -36t113 -85v96h245v-492q0 -129 -34.5 -225t-99 -159.5t-155.5 -95.5t-204 -32q-119 0 -213 42t-158.5 115t-98.5 173.5t-34 216.5zM369 489q0 -147 61.5 -220.5t165.5 -73.5t165.5 73.5t61.5 220.5t-61.5 221 t-165.5 74t-165.5 -73.5t-61.5 -221.5z" />
<glyph unicode="b" d="M119 487v947h278v-521q47 47 114 69t140 22q104 0 189.5 -34t147 -96.5t95 -151.5t33.5 -200q0 -117 -33.5 -217t-96 -173t-153 -115t-200.5 -42q-115 0 -210 35t-162.5 100.5t-104.5 161t-37 215.5zM383 489q0 -147 61.5 -220.5t165.5 -73.5t166 73.5t62 220.5 t-61.5 221t-166.5 74q-104 0 -165.5 -73.5t-61.5 -221.5z" />
<glyph unicode="c" horiz-adv-x="1005" d="M90 463q0 137 46 238.5t128 169t195.5 100.5t249.5 33q59 0 112 -6t97 -11v-219q-37 8 -79 12t-104 4q-180 0 -273 -73.5t-93 -239.5q0 -147 94 -211.5t276 -64.5q59 0 104.5 3.5t80.5 12.5v-219q-43 -6 -97.5 -11.5t-113.5 -5.5q-139 0 -253 27t-197 85t-128 151.5 t-45 224.5z" />
<glyph unicode="d" d="M90 522q0 111 34 200t95.5 151.5t146.5 96.5t189 34q74 0 140.5 -21.5t113.5 -69.5v521h278v-947q0 -121 -36.5 -216t-104 -160.5t-163 -100.5t-210.5 -35q-111 0 -200.5 42t-152 115t-96.5 173.5t-34 216.5zM369 489q0 -147 61.5 -220.5t165.5 -73.5t165.5 73.5 t61.5 220.5t-61.5 221t-165.5 74t-165.5 -73.5t-61.5 -221.5z" />
<glyph unicode="e" horiz-adv-x="1173" d="M90 500q0 98 39 189t109.5 161t169 112t219.5 42q92 0 175 -27t145.5 -82t99 -140t36.5 -204v-43t-2 -47h-729q6 -76 35 -125t78 -78t118.5 -40t155.5 -11q133 0 217 9t119 20v-232q-20 -4 -49 -9t-72 -9t-102 -7.5t-139 -3.5q-139 0 -253 28t-197 89.5t-128 161.5 t-45 246zM377 641h426q0 68 -45 116t-137 48t-153.5 -44t-90.5 -120z" />
<glyph unicode="f" horiz-adv-x="708" d="M18 764v215h136v82q0 94 28.5 169t80.5 125t125 76.5t161 26.5q49 0 92 -6t68 -16v-236q-29 10 -58.5 16.5t-72.5 6.5q-70 0 -108 -46.5t-38 -115.5v-82h182v-215h-182v-764h-278v764h-136z" />
<glyph unicode="g" horiz-adv-x="1210" d="M90 471q0 113 34 211t96.5 169t152.5 112t200 41q115 0 210.5 -35t163 -100.5t104 -161t36.5 -215.5v-492q0 -131 -39.5 -224t-116.5 -151.5t-186.5 -86t-246.5 -27.5q-109 0 -184.5 7t-118.5 17v219q37 -10 111.5 -17t164.5 -7q182 0 260 64.5t78 211.5v86 q-47 -45 -113.5 -66.5t-140.5 -21.5q-104 0 -189 33t-146.5 93t-95.5 146t-34 195zM369 504q0 -139 61.5 -210t165.5 -71t165.5 71t61.5 210t-61.5 209.5t-165.5 70.5t-165.5 -70.5t-61.5 -209.5z" />
<glyph unicode="h" horiz-adv-x="1146" d="M123 0v1434h278v-521q41 41 103.5 66t142.5 25q84 0 153.5 -20.5t121 -62.5t79 -104.5t27.5 -144.5v-672h-278v672q0 51 -36 81.5t-98 30.5q-47 0 -87 -15t-68.5 -39.5t-44 -58.5t-15.5 -71v-600h-278z" />
<glyph unicode="i" horiz-adv-x="559" d="M123 1266q0 72 43 120t115 48q70 0 112.5 -48.5t42.5 -119.5q0 -72 -42.5 -122t-114.5 -50q-70 0 -113 50t-43 122zM137 0v979h279v-979h-279z" />
<glyph unicode="j" horiz-adv-x="612" d="M-88 -190q29 -10 58.5 -16.5t72.5 -6.5q70 0 107.5 46t37.5 116v1030h279v-1030q0 -96 -28.5 -170t-81 -124t-125 -77t-160.5 -27q-49 0 -92 6.5t-68 16.5v236zM174 1266q0 72 43 120t115 48q70 0 112.5 -48.5t42.5 -119.5q0 -72 -42.5 -122t-114.5 -50q-70 0 -113 50 t-43 122z" />
<glyph unicode="k" horiz-adv-x="1175" d="M123 0v1434h278v-832q23 8 47.5 13.5t51.5 9.5l209 354h311l-236 -348q82 -10 137.5 -36t92.5 -69t57.5 -102t30.5 -139q10 -84 15 -151.5t7 -133.5h-278q-2 55 -5 116.5t-12 119.5q-16 106 -63 143t-133 37q-133 0 -232 -25v-391h-278z" />
<glyph unicode="l" horiz-adv-x="524" d="M123 0v1434h278v-1434h-278z" />
<glyph unicode="m" horiz-adv-x="1730" d="M117 0v645q0 184 118.5 271.5t325.5 87.5q102 0 178 -28t129 -73q53 43 127 72t172 29q205 0 325 -87.5t120 -271.5v-645h-277v616q0 94 -39 134.5t-131 40.5q-86 0 -127 -36t-45 -120v-635h-262v616q0 94 -40 134.5t-132 40.5t-131 -40t-39 -135v-616h-272z" />
<glyph unicode="n" horiz-adv-x="1136" d="M117 0v645q0 184 120.5 271.5t329.5 87.5t330 -87.5t121 -271.5v-645h-279v616q0 94 -41 134.5t-133 40.5t-133 -40t-41 -135v-616h-274z" />
<glyph unicode="o" horiz-adv-x="1208" d="M90 489q0 113 39 207.5t107.5 163t163 106.5t204.5 38q111 0 205 -38t162.5 -106.5t107.5 -163t39 -207.5t-39 -207t-107.5 -162.5t-162.5 -106.5t-205 -38t-205 38t-162.5 106.5t-107.5 163t-39 206.5zM369 489q0 -147 63 -220.5t172 -73.5t172.5 73.5t63.5 220.5 t-63.5 221t-172.5 74t-172 -73.5t-63 -221.5z" />
<glyph unicode="p" horiz-adv-x="1204" d="M117 -449v941q0 121 36.5 216t104.5 160.5t163 100.5t210 35q111 0 201 -42t152.5 -115t96 -173.5t33.5 -216.5q0 -111 -33.5 -200t-95 -151.5t-146.5 -96.5t-190 -34q-74 0 -140.5 21.5t-113.5 69.5v-515h-278zM381 489q0 -147 61.5 -220.5t165.5 -73.5t166 73.5 t62 220.5t-61.5 221t-166.5 74q-104 0 -165.5 -73.5t-61.5 -221.5z" />
<glyph unicode="q" d="M90 457q0 117 34 217t96.5 173t152.5 115t200 42q115 0 210.5 -35t163 -100.5t104 -161t36.5 -215.5v-941h-278v515q-47 -47 -113.5 -69t-140.5 -22q-104 0 -189 34t-146.5 96.5t-95.5 151.5t-34 200zM369 489q0 -147 61.5 -220.5t165.5 -73.5t165.5 73.5t61.5 220.5 t-61.5 221t-165.5 74t-165.5 -73.5t-61.5 -221.5z" />
<glyph unicode="r" horiz-adv-x="804" d="M117 0v561q0 211 129 327t358 116q33 0 57.5 -2t44 -3.5t38 -4.5t40.5 -5v-217q-37 6 -77.5 10t-73.5 4q-111 0 -174.5 -54t-63.5 -161v-571h-278z" />
<glyph unicode="s" horiz-adv-x="999" d="M57 692q0 76 43 133.5t118 97.5t177.5 60.5t218.5 20.5q63 0 125 -5.5t125 -15.5v-221q-53 10 -122.5 15t-166.5 5q-111 0 -176 -13t-65 -67q0 -27 20.5 -39t85.5 -24q98 -16 189.5 -35.5t169.5 -46.5q80 -29 116.5 -93.5t36.5 -135.5q0 -117 -56 -186.5t-142 -106.5 t-187.5 -48.5t-189.5 -11.5q-106 0 -185 6.5t-133 16.5v229q55 -10 134 -17t188 -7q147 0 224 22.5t77 75.5q0 29 -20.5 47.5t-67.5 30.5t-100.5 21.5t-107.5 20.5t-106.5 25.5t-97.5 36.5q-59 31 -92 77t-33 132z" />
<glyph unicode="t" horiz-adv-x="688" d="M109 397v875h278v-293h246v-215h-246v-367q0 -70 38 -115.5t107 -45.5q43 0 73 6t59 16v-235q-25 -10 -68 -16.5t-92 -6.5q-88 0 -161 26.5t-125 77t-80.5 124t-28.5 169.5z" />
<glyph unicode="u" horiz-adv-x="1124" d="M117 334v645h278v-617q0 -94 39 -134t129 -40t129 40t39 134v617h275v-645q0 -92 -33 -160t-91.5 -112t-140.5 -65.5t-180 -21.5t-180 21.5t-140.5 65.5t-91 112t-32.5 160z" />
<glyph unicode="v" horiz-adv-x="1083" d="M10 979h312l225 -606l229 606h295l-414 -979h-235z" />
<glyph unicode="w" horiz-adv-x="1413" d="M10 979h287l209 -633l88 199l-195 434h238l74 -193l77 193h224l-191 -422l94 -211l213 633h273l-354 -979h-209l-133 334l-134 -334h-209z" />
<glyph unicode="x" horiz-adv-x="1056" d="M14 0l342 526l-288 453h305l166 -272l168 272h290l-299 -449l342 -530h-311l-215 348l-205 -348h-295z" />
<glyph unicode="y" horiz-adv-x="1079" d="M10 979h305l238 -631l215 631h299l-438 -1129q-27 -72 -64 -127t-90 -93t-126 -58.5t-171 -20.5h-42.5t-45.5 5v221q18 -2 33.5 -3t32.5 -1q57 0 98 10t69.5 36.5t51 72t47.5 116.5z" />
<glyph unicode="z" horiz-adv-x="1073" d="M61 0v195l551 569h-512v215h885v-164l-539 -586h576v-229h-961z" />
<glyph unicode="{" horiz-adv-x="849" d="M86 477v238h59q106 0 143.5 38t37.5 134v430q0 164 100 243.5t268 79.5q45 0 69.5 -3t45.5 -13v-184q-12 4 -36.5 7t-74.5 3q-57 0 -83.5 -30.5t-26.5 -102.5v-451q0 -66 -10.5 -111.5t-31 -76.5t-53 -50.5t-75.5 -31.5q43 -12 75.5 -31.5t53 -50.5t31 -77t10.5 -111 v-451q0 -72 26.5 -102.5t83.5 -30.5q49 0 74 3t37 7v-184q-20 -10 -45 -13.5t-70 -3.5q-168 0 -268 80t-100 244v430q0 96 -37 134t-144 38h-59z" />
<glyph unicode="|" horiz-adv-x="638" d="M188 -449v2089h263v-2089h-263z" />
<glyph unicode="}" horiz-adv-x="849" d="M41 -248q12 -4 36.5 -7t74.5 -3q57 0 83.5 30.5t26.5 102.5v451q0 66 10.5 111.5t31 76.5t53 50.5t75.5 31.5q-43 12 -75.5 31.5t-53 50.5t-31 77t-10.5 111v451q0 72 -26.5 102.5t-83.5 30.5q-49 0 -74 -3t-37 -7v184q20 10 45 13t70 3q168 0 268 -79.5t100 -243.5v-430 q0 -49 8.5 -82t29 -52.5t55 -28.5t88.5 -9h59v-238h-59q-53 0 -88 -9t-55.5 -28.5t-29 -52.5t-8.5 -82v-430q0 -164 -100 -244t-268 -80q-45 0 -70 3.5t-45 13.5v184z" />
<glyph unicode="~" horiz-adv-x="1476" d="M123 575v207q31 33 63.5 57.5t73.5 40t93.5 23.5t121.5 8q70 0 138.5 -19.5t137 -42t137 -42t138.5 -19.5q61 0 107.5 7.5t85 21.5t70.5 37t65 53v-207q-31 -33 -64 -57.5t-73.5 -39.5t-93 -23.5t-122.5 -8.5q-72 0 -140 19.5t-137 42t-137.5 42t-135.5 19.5 q-121 0 -193 -28.5t-135 -90.5z" />
<glyph unicode="&#xa1;" horiz-adv-x="567" d="M127 1081q0 72 43 122t115 50q70 0 112.5 -50t42.5 -122t-43 -120t-114 -48q-70 0 -113 48.5t-43 119.5zM139 -205v977h291v-977h-291z" />
<glyph unicode="&#xa2;" horiz-adv-x="1003" d="M86 668q0 229 123 359t328 167v238h143v-224h25q59 0 112 -5t96 -11v-219q-37 8 -78.5 12t-103.5 4q-180 0 -273 -73.5t-93 -239.5q0 -147 94 -212t276 -65q59 0 104.5 4.5t80.5 12.5v-219q-43 -6 -97.5 -11.5t-113.5 -5.5h-29v-180h-143v190q-102 14 -186.5 50 t-142.5 94.5t-90 140.5t-32 193z" />
<glyph unicode="&#xa3;" horiz-adv-x="1157" d="M59 0v244h160q86 113 86 223v18h-237v207h161q-10 20 -23 40t-28 40q-55 78 -78.5 151.5t-23.5 147.5q0 84 41 155.5t116.5 123t182 80t237.5 28.5q74 0 133.5 -4t109.5 -11t95 -17.5t90 -24.5v-244q-100 29 -200.5 43t-223.5 14q-162 0 -223 -42t-61 -111 q0 -51 28.5 -117.5t96.5 -155.5q18 -25 33.5 -48t27.5 -48h340v-207h-301q-12 -98 -70 -241h537v-244h-1006z" />
<glyph unicode="&#xa4;" horiz-adv-x="1208" d="M53 293l183 182q-33 51 -50.5 110.5t-17.5 131.5q0 143 70 244l-183 184l123 125l184 -187q49 31 111 48.5t129 17.5q68 0 128.5 -17.5t111.5 -50.5l186 187l125 -123l-186 -187q33 -51 50 -112.5t17 -128.5q0 -70 -17.5 -129.5t-47.5 -110.5l184 -184l-123 -123 l-184 182q-102 -68 -244 -67q-137 0 -244 65l-182 -182zM403 717q0 -123 53.5 -185.5t145.5 -62.5t144.5 62.5t52.5 185.5t-52.5 185.5t-144.5 62.5t-145.5 -62.5t-53.5 -185.5z" />
<glyph unicode="&#xa5;" horiz-adv-x="1273" d="M35 1434h342l276 -512l265 512h321l-416 -738h355v-166h-390v-120h390v-166h-390v-244h-292v244h-402v166h402v120h-402v166h365z" />
<glyph unicode="&#xa6;" horiz-adv-x="638" d="M188 389h263v-838h-263v838zM188 778v862h263v-862h-263z" />
<glyph unicode="&#xa7;" horiz-adv-x="1124" d="M88 553q0 98 44 169t122 118q-66 51 -99.5 108.5t-33.5 134.5q0 98 44 169t120.5 117t180 67.5t222.5 21.5q135 0 256 -20v-221q-123 25 -246 24q-152 0 -241.5 -32.5t-89.5 -112.5q0 -35 23.5 -61.5t64.5 -49t92 -42t108.5 -41t113.5 -47.5t105 -58q70 -47 115 -111.5 t45 -163.5q0 -104 -40 -175t-103 -116q51 -43 80.5 -101t29.5 -136q0 -129 -58 -208t-149.5 -121t-200 -56.5t-208.5 -14.5q-74 0 -151.5 5.5t-143.5 15.5v223q59 -14 134 -20t159 -6q180 0 272.5 39.5t92.5 144.5q0 63 -52.5 101t-129.5 68t-165 59.5t-161 74.5 q-66 41 -109 101.5t-43 152.5zM334 567q0 -37 26.5 -65.5t70.5 -52t99.5 -44t114.5 -40.5q135 39 135 159q0 47 -25.5 78t-70.5 53q-29 14 -58.5 27t-64.5 27q-106 -10 -166.5 -43t-60.5 -99z" />
<glyph unicode="&#xa8;" horiz-adv-x="962" d="M106 1266q0 72 43.5 120t114.5 48q70 0 113 -48.5t43 -119.5q0 -72 -43 -122t-115 -50q-70 0 -113 50t-43 122zM543 1266q0 72 43 120t114 48q70 0 113 -48.5t43 -119.5q0 -72 -43 -122t-115 -50q-70 0 -112.5 50t-42.5 122z" />
<glyph unicode="&#xaa;" horiz-adv-x="724" d="M70 1090q0 127 72.5 198.5t189.5 71.5q49 0 84 -12.5t59 -32.5v33h156v-275q0 -147 -75 -218t-204 -71q-68 0 -120 23.5t-87.5 65.5t-55 97.5t-19.5 119.5zM244 1073q0 -72 30.5 -109.5t79.5 -37.5t80 37.5t31 109.5t-31 110t-80 38t-79.5 -38t-30.5 -110z" />
<glyph unicode="&#xab;" horiz-adv-x="1093" d="M47 250zM47 518v309l453 269v-222l-285 -202l285 -201v-221zM594 518v309l453 269v-222l-285 -202l285 -201v-221z" />
<glyph unicode="&#xac;" horiz-adv-x="1028" d="M25 659v207h862v-866h-207v659h-655z" />
<glyph unicode="&#xad;" horiz-adv-x="561" d="M51 553v205h459v-205h-459z" />
<glyph unicode="&#xaf;" horiz-adv-x="862" d="M31 1145v217h800v-217h-800z" />
<glyph unicode="&#xb0;" horiz-adv-x="862" d="M90 1118q0 74 25.5 136.5t71.5 107.5t107.5 70.5t135.5 25.5t136.5 -25.5t108.5 -70.5t71.5 -107.5t25.5 -136.5q0 -76 -25.5 -138t-71.5 -107.5t-108.5 -71t-136.5 -25.5t-135.5 25.5t-107.5 71t-71.5 107.5t-25.5 138zM274 1118q0 -98 42 -147t114 -49t115 49t43 147 t-43 146.5t-115 48.5t-114 -48t-42 -147z" />
<glyph unicode="&#xb1;" horiz-adv-x="1476" d="M123 0zM123 4h1231v-207h-1231v207zM123 659v207h512v510h207v-510h512v-207h-512v-514h-207v514h-512z" />
<glyph unicode="&#xb2;" horiz-adv-x="751" d="M88 665v207q0 78 27.5 122t68.5 71q51 31 112.5 47t115.5 43q41 20 55 38.5t14 53.5q0 31 -31.5 50.5t-111.5 19.5q-63 0 -120.5 -9.5t-119.5 -25.5v158q53 16 105.5 24t136.5 8q150 0 237 -62.5t87 -156.5q0 -70 -20.5 -115t-68.5 -75q-63 -43 -119.5 -64.5t-97.5 -40 t-65.5 -40t-24.5 -64.5v-35h371v-154h-551zM88 666z" />
<glyph unicode="&#xb3;" horiz-adv-x="675" d="M74 651zM74 672v147q59 -12 96 -17.5t80 -5.5q104 0 138 35t34 90q0 53 -38 74t-108 21h-118v141h104q59 0 90 22.5t31 63.5q0 31 -27.5 59.5t-103.5 28.5q-102 0 -178 -27v146q35 8 78 15t112 7q147 0 220 -65.5t73 -153.5q0 -47 -20.5 -87t-59.5 -62q53 -16 87 -66.5 t34 -114.5q0 -49 -20.5 -98t-62.5 -87t-105.5 -62.5t-149.5 -24.5q-72 0 -117 6t-69 15z" />
<glyph unicode="&#xb4;" horiz-adv-x="622" d="M23 1053l268 452h309l-336 -452h-241z" />
<glyph unicode="&#xb6;" horiz-adv-x="1472" d="M55 1042q0 94 32 168t88 123t131 75t161 26h588q88 0 144 -17.5t90 -51.5t47.5 -84t13.5 -116v-1425h-236v1403q0 45 -19.5 68.5t-66.5 23.5h-176q43 -96 43 -217v-1278h-238v960q-37 -23 -86 -36t-114 -13q-92 0 -166 33t-126 87t-81 125t-29 146zM281 1042 q0 -98 47 -154.5t129 -56.5q55 0 107 24t93 75v88q0 123 -52 179t-144 56q-78 0 -129 -53t-51 -158z" />
<glyph unicode="&#xb7;" horiz-adv-x="559" d="M123 487zM123 659q0 72 43 120t115 48q70 0 112.5 -48t42.5 -120t-42.5 -122t-114.5 -50q-70 0 -113 50.5t-43 121.5z" />
<glyph unicode="&#xb8;" horiz-adv-x="466" d="M68 -190q0 61 47 102t112 41q70 0 111 -45t41 -107q0 -115 -105 -250h-186q47 72 62 130q-43 23 -62.5 56.5t-19.5 72.5z" />
<glyph unicode="&#xb9;" horiz-adv-x="456" d="M43 666zM43 1304v154h115q123 0 165 -47t42 -141v-605h-181v590q0 49 -43 49h-98z" />
<glyph unicode="&#xba;" horiz-adv-x="724" d="M72 1073q0 63 21.5 116.5t60.5 91.5t91 58.5t113 20.5t113.5 -20.5t91.5 -58.5t60.5 -91t21.5 -117q0 -61 -21.5 -114.5t-60.5 -92.5t-91.5 -60.5t-113.5 -21.5t-113 21.5t-91 60.5t-60.5 92.5t-21.5 114.5zM244 1073q0 -72 31.5 -109.5t82.5 -37.5q53 0 85 37.5 t32 109.5t-31.5 110t-85.5 38q-51 0 -82.5 -38t-31.5 -110z" />
<glyph unicode="&#xbb;" horiz-adv-x="1093" d="M47 250v221l285 201l-285 202v222l453 -269v-309zM47 250zM594 250v221l285 201l-285 202v222l453 -269v-309z" />
<glyph unicode="&#xbc;" horiz-adv-x="1640" d="M90 0l1128 1434h219l-1130 -1434h-217zM90 0zM92 1304v154h115q123 0 165 -47t42 -141v-605h-181v590q0 49 -43 49h-98zM930 270v117l369 381h145v-365h107v-133h-107v-295h-178v295h-336zM1141 403h125v132z" />
<glyph unicode="&#xbd;" horiz-adv-x="1693" d="M90 0l1128 1434h219l-1130 -1434h-217zM90 0zM92 1304v154h115q123 0 165 -47t42 -141v-605h-181v590q0 49 -43 49h-98zM1028 -25v207q0 78 27.5 122t68.5 71q51 31 112.5 47t115.5 43q41 20 55 38.5t14 53.5q0 31 -31.5 50.5t-111.5 19.5q-63 0 -120.5 -9.5 t-119.5 -25.5v158q53 16 105.5 24t136.5 8q150 0 237 -62.5t87 -156.5q0 -70 -20.5 -115t-68.5 -75q-63 -43 -119.5 -64.5t-97.5 -40t-65.5 -40t-24.5 -64.5v-35h371v-154h-551z" />
<glyph unicode="&#xbe;" horiz-adv-x="1683" d="M90 0zM90 672v147q59 -12 96 -17.5t80 -5.5q104 0 138 35t34 90q0 53 -38 74t-108 21h-118v141h104q59 0 90 22.5t31 63.5q0 31 -27.5 59.5t-103.5 28.5q-102 0 -178 -27v146q35 8 78 15t112 7q147 0 220 -65.5t73 -153.5q0 -47 -20.5 -87t-59.5 -62q53 -16 87 -66.5 t34 -114.5q0 -49 -20.5 -98t-62.5 -87t-105.5 -62.5t-149.5 -24.5q-72 0 -117 6t-69 15zM133 0l1128 1434h219l-1130 -1434h-217zM973 270v117l369 381h145v-365h107v-133h-107v-295h-178v295h-336zM1184 403h125v132z" />
<glyph unicode="&#xbf;" horiz-adv-x="950" d="M18 113q0 109 35 177t82 113q31 29 69 56.5t75.5 53.5t70.5 48.5t53 40.5q37 35 47.5 63.5t10.5 84.5v22h266v-47q0 -86 -16.5 -141.5t-63.5 -102.5q-20 -20 -50 -40.5t-63.5 -42t-68.5 -43t-66 -42.5q-31 -23 -49 -40t-29.5 -36.5t-15.5 -42t-4 -55.5q0 -53 61.5 -95 t194.5 -42q125 0 213 14.5t164 30.5v-231q-59 -16 -156.5 -30.5t-232.5 -14.5q-143 0 -243.5 28.5t-163 75.5t-91.5 108.5t-29 129.5zM432 1081q0 72 43 122t115 50q70 0 112.5 -50t42.5 -122t-43 -120t-114 -48q-70 0 -113 48.5t-43 119.5z" />
<glyph unicode="&#xc0;" horiz-adv-x="1286" d="M10 0l504 1434h256l504 -1434h-1264zM10 0zM252 1960h309l268 -452h-242zM389 244h498l-248 790z" />
<glyph unicode="&#xc1;" horiz-adv-x="1286" d="M10 0l504 1434h256l504 -1434h-1264zM10 0zM389 244h498l-248 790zM457 1508l268 452h309l-336 -452h-241z" />
<glyph unicode="&#xc2;" horiz-adv-x="1286" d="M10 0l504 1434h256l504 -1434h-1264zM10 0zM219 1508l268 452h310l268 -452h-221l-203 284l-201 -284h-221zM389 244h498l-248 790z" />
<glyph unicode="&#xc3;" horiz-adv-x="1286" d="M10 0l504 1434h256l504 -1434h-1264zM10 0zM242 1571v199q41 45 89 65.5t140 20.5q45 0 90 -13.5t89 -29t89 -27.5t90 -12q78 0 125.5 19.5t87.5 60.5v-199q-41 -45 -89 -65.5t-140 -20.5q-47 0 -92 12.5t-89 27.5t-88 28.5t-89 13.5q-78 0 -125 -19.5t-88 -60.5z M389 244h498l-248 790z" />
<glyph unicode="&#xc4;" horiz-adv-x="1286" d="M10 0l504 1434h256l504 -1434h-1264zM10 0zM268 1721q0 72 43.5 120t114.5 48q70 0 113 -48.5t43 -119.5q0 -72 -43 -122t-115 -50q-70 0 -113 50t-43 122zM389 244h498l-248 790zM705 1721q0 72 43 120t114 48q70 0 113 -48.5t43 -119.5q0 -72 -43 -122t-115 -50 q-70 0 -112.5 50t-42.5 122z" />
<glyph unicode="&#xc5;" horiz-adv-x="1286" d="M10 0l504 1434h256l504 -1434h-1264zM10 0zM389 244h498l-248 790zM396 1717q0 109 70.5 176t176.5 67q109 0 178.5 -67t69.5 -176q0 -106 -69.5 -174t-178.5 -68q-106 0 -176.5 67.5t-70.5 174.5zM539 1717q0 -53 28.5 -81t75.5 -28q49 0 77 27.5t28 81.5 q0 53 -27.5 79.5t-77.5 26.5q-47 0 -75.5 -26.5t-28.5 -79.5z" />
<glyph unicode="&#xc6;" horiz-adv-x="1828" d="M10 0l504 1434h1235v-244h-686l22 -170h646v-232h-615l72 -544h565v-244h-1743zM389 244h508l-125 946h-86z" />
<glyph unicode="&#xc7;" horiz-adv-x="1189" d="M90 0zM90 678q0 199 60.5 345t165 243.5t244.5 144.5t298 47q66 0 128.5 -7t111.5 -17v-246q-43 12 -94.5 19t-122.5 7q-233 0 -364.5 -126.5t-131.5 -399.5q0 -246 131 -357.5t369 -111.5q72 0 125 7t96 20v-246q-49 -10 -113.5 -17.5t-130.5 -7.5q-160 0 -301 39 t-245.5 123t-165 217t-60.5 324zM643 -190q0 61 47 102t112 41q70 0 111 -45t41 -107q0 -115 -105 -250h-186q47 72 62 130q-43 23 -62.5 56.5t-19.5 72.5z" />
<glyph unicode="&#xc8;" horiz-adv-x="1157" d="M123 0v1434h954v-244h-663v-170h645v-232h-645v-544h667v-244h-958zM123 0zM207 1960h309l268 -452h-242z" />
<glyph unicode="&#xc9;" horiz-adv-x="1157" d="M123 0v1434h954v-244h-663v-170h645v-232h-645v-544h667v-244h-958zM123 0zM433 1508l268 452h309l-336 -452h-241z" />
<glyph unicode="&#xca;" horiz-adv-x="1157" d="M123 0v1434h954v-244h-663v-170h645v-232h-645v-544h667v-244h-958zM123 0zM176 1508l268 452h310l268 -452h-221l-203 284l-201 -284h-221z" />
<glyph unicode="&#xcb;" horiz-adv-x="1157" d="M123 0v1434h954v-244h-663v-170h645v-232h-645v-544h667v-244h-958zM123 0zM223 1721q0 72 43.5 120t114.5 48q70 0 113 -48.5t43 -119.5q0 -72 -43 -122t-115 -50q-70 0 -113 50t-43 122zM660 1721q0 72 43 120t114 48q70 0 113 -48.5t43 -119.5q0 -72 -43 -122 t-115 -50q-70 0 -112.5 50t-42.5 122z" />
<glyph unicode="&#xcc;" horiz-adv-x="536" d="M-120 1960h309l268 -452h-242zM0 0zM123 0v1434h291v-1434h-291z" />
<glyph unicode="&#xcd;" horiz-adv-x="536" d="M82 0zM82 1508l268 452h309l-336 -452h-241zM123 0v1434h291v-1434h-291z" />
<glyph unicode="&#xce;" horiz-adv-x="536" d="M-152 1508l268 452h310l268 -452h-221l-203 284l-201 -284h-221zM0 0zM123 0v1434h291v-1434h-291z" />
<glyph unicode="&#xcf;" horiz-adv-x="536" d="M-105 1721q0 72 43.5 120t114.5 48q70 0 113 -48.5t43 -119.5q0 -72 -43 -122t-115 -50q-70 0 -113 50t-43 122zM0 0zM123 0v1434h291v-1434h-291zM332 1721q0 72 43 120t114 48q70 0 113 -48.5t43 -119.5q0 -72 -43 -122t-115 -50q-70 0 -112.5 50t-42.5 122z" />
<glyph unicode="&#xd0;" horiz-adv-x="1351" d="M20 788v232h123v381q94 29 197.5 43t261.5 14q324 0 492 -198.5t168 -554.5q0 -145 -40 -277.5t-121 -233t-206 -160t-293 -59.5q-158 0 -261 14.5t-198 43.5v755h-123zM434 219q16 -6 47 -12t78 -6q125 0 203 43t123 117.5t61.5 174t16.5 212.5q0 238 -91.5 361.5 t-312.5 123.5q-47 0 -77.5 -6t-47.5 -13v-194h232v-232h-232v-569z" />
<glyph unicode="&#xd1;" horiz-adv-x="1304" d="M117 0v1434h295l520 -879v879h256v-1434h-238l-571 946v-946h-262zM117 0zM252 1571v199q41 45 89 65.5t140 20.5q45 0 90 -13.5t89 -29t89 -27.5t90 -12q78 0 125.5 19.5t87.5 60.5v-199q-41 -45 -89 -65.5t-140 -20.5q-47 0 -92 12.5t-89 27.5t-88 28.5t-89 13.5 q-78 0 -125 -19.5t-88 -60.5z" />
<glyph unicode="&#xd2;" horiz-adv-x="1200" d="M78 0zM78 930q0 115 39 211t108.5 166.5t165.5 110.5t209 40t209 -40t165.5 -110.5t108.5 -167t39 -210.5q0 -115 -39 -211t-108.5 -167t-165.5 -111t-209 -40t-209 40t-165.5 111t-108.5 167t-39 211zM145 0v244h910v-244h-910zM209 1960h309l268 -452h-242zM369 930 q0 -63 16 -117.5t46 -93.5t73 -61.5t96 -22.5t96 22.5t73 61.5t46 93t16 118q0 63 -16 117.5t-46 93.5t-73 61.5t-96 22.5t-96 -22.5t-73 -61.5t-46 -93.5t-16 -117.5z" />
<glyph unicode="&#xd3;" horiz-adv-x="1200" d="M78 0zM78 930q0 115 39 211t108.5 166.5t165.5 110.5t209 40t209 -40t165.5 -110.5t108.5 -167t39 -210.5q0 -115 -39 -211t-108.5 -167t-165.5 -111t-209 -40t-209 40t-165.5 111t-108.5 167t-39 211zM145 0v244h910v-244h-910zM369 930q0 -63 16 -117.5t46 -93.5 t73 -61.5t96 -22.5t96 22.5t73 61.5t46 93t16 118q0 63 -16 117.5t-46 93.5t-73 61.5t-96 22.5t-96 -22.5t-73 -61.5t-46 -93.5t-16 -117.5zM414 1508l268 452h309l-336 -452h-241z" />
<glyph unicode="&#xd4;" horiz-adv-x="1200" d="M78 0zM78 930q0 115 39 211t108.5 166.5t165.5 110.5t209 40t209 -40t165.5 -110.5t108.5 -167t39 -210.5q0 -115 -39 -211t-108.5 -167t-165.5 -111t-209 -40t-209 40t-165.5 111t-108.5 167t-39 211zM145 0v244h910v-244h-910zM176 1508l268 452h310l268 -452h-221 l-203 284l-201 -284h-221zM369 930q0 -63 16 -117.5t46 -93.5t73 -61.5t96 -22.5t96 22.5t73 61.5t46 93t16 118q0 63 -16 117.5t-46 93.5t-73 61.5t-96 22.5t-96 -22.5t-73 -61.5t-46 -93.5t-16 -117.5z" />
<glyph unicode="&#xd5;" horiz-adv-x="1200" d="M78 0zM78 930q0 115 39 211t108.5 166.5t165.5 110.5t209 40t209 -40t165.5 -110.5t108.5 -167t39 -210.5q0 -115 -39 -211t-108.5 -167t-165.5 -111t-209 -40t-209 40t-165.5 111t-108.5 167t-39 211zM145 0v244h910v-244h-910zM199 1571v199q41 45 89 65.5t140 20.5 q45 0 90 -13.5t89 -29t89 -27.5t90 -12q78 0 125.5 19.5t87.5 60.5v-199q-41 -45 -89 -65.5t-140 -20.5q-47 0 -92 12.5t-89 27.5t-88 28.5t-89 13.5q-78 0 -125 -19.5t-88 -60.5zM369 930q0 -63 16 -117.5t46 -93.5t73 -61.5t96 -22.5t96 22.5t73 61.5t46 93t16 118 q0 63 -16 117.5t-46 93.5t-73 61.5t-96 22.5t-96 -22.5t-73 -61.5t-46 -93.5t-16 -117.5z" />
<glyph unicode="&#xd6;" horiz-adv-x="1200" d="M78 0zM78 930q0 115 39 211t108.5 166.5t165.5 110.5t209 40t209 -40t165.5 -110.5t108.5 -167t39 -210.5q0 -115 -39 -211t-108.5 -167t-165.5 -111t-209 -40t-209 40t-165.5 111t-108.5 167t-39 211zM145 0v244h910v-244h-910zM225 1721q0 72 43.5 120t114.5 48 q70 0 113 -48.5t43 -119.5q0 -72 -43 -122t-115 -50q-70 0 -113 50t-43 122zM369 930q0 -63 16 -117.5t46 -93.5t73 -61.5t96 -22.5t96 22.5t73 61.5t46 93t16 118q0 63 -16 117.5t-46 93.5t-73 61.5t-96 22.5t-96 -22.5t-73 -61.5t-46 -93.5t-16 -117.5zM662 1721 q0 72 43 120t114 48q70 0 113 -48.5t43 -119.5q0 -72 -43 -122t-115 -50q-70 0 -112.5 50t-42.5 122z" />
<glyph unicode="&#xd7;" horiz-adv-x="1476" d="M231 397l363 365l-363 360l148 148l360 -363l361 361l147 -146l-360 -360l362 -363l-147 -145l-363 360l-362 -362z" />
<glyph unicode="&#xd8;" horiz-adv-x="1445" d="M90 -86l172 274q-84 100 -128 235.5t-44 293.5q0 156 44 291t127 235t200 157.5t262 57.5q162 0 289 -72l82 134h260l-172 -275q86 -100 130 -235.5t44 -292.5q0 -156 -44 -291t-127 -235.5t-200 -158t-262 -57.5q-84 0 -155.5 18.5t-135.5 53.5l-84 -133h-258zM393 717 q0 -152 35 -262l453 725q-72 45 -158 45q-158 0 -244 -132t-86 -376zM561 254q66 -45 162 -45q158 0 244 132t86 376q0 154 -37 264z" />
<glyph unicode="&#xd9;" horiz-adv-x="1269" d="M113 0zM113 432v1002h290v-1002q0 -111 56.5 -168t179.5 -57t181.5 54t58.5 171v1002h278v-1002q0 -104 -40 -189t-109.5 -144.5t-164.5 -91.5t-206 -32q-117 0 -214 32t-166 91.5t-106.5 144.5t-37.5 189zM244 1960h309l268 -452h-242z" />
<glyph unicode="&#xda;" horiz-adv-x="1269" d="M113 0zM113 432v1002h290v-1002q0 -111 56.5 -168t179.5 -57t181.5 54t58.5 171v1002h278v-1002q0 -104 -40 -189t-109.5 -144.5t-164.5 -91.5t-206 -32q-117 0 -214 32t-166 91.5t-106.5 144.5t-37.5 189zM449 1508l268 452h309l-336 -452h-241z" />
<glyph unicode="&#xdb;" horiz-adv-x="1269" d="M113 0zM113 432v1002h290v-1002q0 -111 56.5 -168t179.5 -57t181.5 54t58.5 171v1002h278v-1002q0 -104 -40 -189t-109.5 -144.5t-164.5 -91.5t-206 -32q-117 0 -214 32t-166 91.5t-106.5 144.5t-37.5 189zM211 1508l268 452h310l268 -452h-221l-203 284l-201 -284h-221z " />
<glyph unicode="&#xdc;" horiz-adv-x="1269" d="M113 0zM113 432v1002h290v-1002q0 -111 56.5 -168t179.5 -57t181.5 54t58.5 171v1002h278v-1002q0 -104 -40 -189t-109.5 -144.5t-164.5 -91.5t-206 -32q-117 0 -214 32t-166 91.5t-106.5 144.5t-37.5 189zM260 1721q0 72 43.5 120t114.5 48q70 0 113 -48.5t43 -119.5 q0 -72 -43 -122t-115 -50q-70 0 -113 50t-43 122zM697 1721q0 72 43 120t114 48q70 0 113 -48.5t43 -119.5q0 -72 -43 -122t-115 -50q-70 0 -112.5 50t-42.5 122z" />
<glyph unicode="&#xdd;" d="M0 0zM0 1434h342l276 -512l265 512h321l-450 -799v-635h-293v633zM416 1508l268 452h309l-336 -452h-241z" />
<glyph unicode="&#xde;" horiz-adv-x="1204" d="M123 0v1434h291v-301q49 16 106.5 26t126.5 10q104 0 196.5 -30.5t161 -92t107.5 -150.5t39 -206q0 -92 -35 -178t-99.5 -153.5t-154.5 -107.5t-203 -40q-80 0 -140 16.5t-105 44.5v-272h-291zM414 553q51 -63 114.5 -92t130.5 -29q100 0 157.5 69.5t57.5 188.5 q0 127 -62 192.5t-157 65.5q-115 0 -178 -68.5t-63 -220.5v-106z" />
<glyph unicode="&#xdf;" horiz-adv-x="1216" d="M123 0v1061q0 193 117.5 295t345.5 102q84 0 170 -18.5t155.5 -62.5t113.5 -118.5t44 -187.5q0 -96 -49 -175t-127 -105q55 -12 100 -43t79 -74t52.5 -98.5t18.5 -116.5q0 -102 -31 -190.5t-94.5 -154t-157.5 -102.5t-221 -37q-51 0 -85 4.5t-56 10.5v223q23 -4 52.5 -8 t88.5 -4q104 0 161.5 53t57.5 201q0 115 -76.5 155.5t-216.5 40.5h-63v219h39q119 0 181 48.5t62 134.5q0 100 -53 135t-145 35q-98 0 -141.5 -46.5t-43.5 -115.5v-1061h-278z" />
<glyph unicode="&#xe0;" d="M90 0zM90 522q0 111 34 200t95.5 151.5t146.5 96.5t189 34t174 -36t113 -85v96h245v-492q0 -129 -34.5 -225t-99 -159.5t-155.5 -95.5t-204 -32q-119 0 -213 42t-158.5 115t-98.5 173.5t-34 216.5zM211 1505h309l268 -452h-242zM369 489q0 -147 61.5 -220.5t165.5 -73.5 t165.5 73.5t61.5 220.5t-61.5 221t-165.5 74t-165.5 -73.5t-61.5 -221.5z" />
<glyph unicode="&#xe1;" d="M90 0zM90 522q0 111 34 200t95.5 151.5t146.5 96.5t189 34t174 -36t113 -85v96h245v-492q0 -129 -34.5 -225t-99 -159.5t-155.5 -95.5t-204 -32q-119 0 -213 42t-158.5 115t-98.5 173.5t-34 216.5zM369 489q0 -147 61.5 -220.5t165.5 -73.5t165.5 73.5t61.5 220.5 t-61.5 221t-165.5 74t-165.5 -73.5t-61.5 -221.5zM416 1053l268 452h309l-336 -452h-241z" />
<glyph unicode="&#xe2;" d="M90 0zM90 522q0 111 34 200t95.5 151.5t146.5 96.5t189 34t174 -36t113 -85v96h245v-492q0 -129 -34.5 -225t-99 -159.5t-155.5 -95.5t-204 -32q-119 0 -213 42t-158.5 115t-98.5 173.5t-34 216.5zM180 1053l268 452h310l268 -452h-221l-203 284l-201 -284h-221zM369 489 q0 -147 61.5 -220.5t165.5 -73.5t165.5 73.5t61.5 220.5t-61.5 221t-165.5 74t-165.5 -73.5t-61.5 -221.5z" />
<glyph unicode="&#xe3;" d="M90 0zM90 522q0 111 34 200t95.5 151.5t146.5 96.5t189 34t174 -36t113 -85v96h245v-492q0 -129 -34.5 -225t-99 -159.5t-155.5 -95.5t-204 -32q-119 0 -213 42t-158.5 115t-98.5 173.5t-34 216.5zM203 1116v199q41 45 89 65.5t140 20.5q45 0 90 -13.5t89 -29t89 -27.5 t90 -12q78 0 125.5 19.5t87.5 60.5v-199q-41 -45 -89 -65.5t-140 -20.5q-47 0 -92 12.5t-89 27.5t-88 28.5t-89 13.5q-78 0 -125 -19.5t-88 -60.5zM369 489q0 -147 61.5 -220.5t165.5 -73.5t165.5 73.5t61.5 220.5t-61.5 221t-165.5 74t-165.5 -73.5t-61.5 -221.5z" />
<glyph unicode="&#xe4;" d="M90 0zM90 522q0 111 34 200t95.5 151.5t146.5 96.5t189 34t174 -36t113 -85v96h245v-492q0 -129 -34.5 -225t-99 -159.5t-155.5 -95.5t-204 -32q-119 0 -213 42t-158.5 115t-98.5 173.5t-34 216.5zM227 1266q0 72 43.5 120t114.5 48q70 0 113 -48.5t43 -119.5 q0 -72 -43 -122t-115 -50q-70 0 -113 50t-43 122zM369 489q0 -147 61.5 -220.5t165.5 -73.5t165.5 73.5t61.5 220.5t-61.5 221t-165.5 74t-165.5 -73.5t-61.5 -221.5zM664 1266q0 72 43 120t114 48q70 0 113 -48.5t43 -119.5q0 -72 -43 -122t-115 -50q-70 0 -112.5 50 t-42.5 122z" />
<glyph unicode="&#xe5;" d="M90 0zM90 522q0 111 34 200t95.5 151.5t146.5 96.5t189 34t174 -36t113 -85v96h245v-492q0 -129 -34.5 -225t-99 -159.5t-155.5 -95.5t-204 -32q-119 0 -213 42t-158.5 115t-98.5 173.5t-34 216.5zM355 1262q0 109 70.5 176t176.5 67q109 0 178.5 -67t69.5 -176 q0 -106 -69.5 -174t-178.5 -68q-106 0 -176.5 67.5t-70.5 174.5zM369 489q0 -147 61.5 -220.5t165.5 -73.5t165.5 73.5t61.5 220.5t-61.5 221t-165.5 74t-165.5 -73.5t-61.5 -221.5zM498 1262q0 -53 28.5 -81t75.5 -28q49 0 77 27.5t28 81.5q0 53 -27.5 79.5t-77.5 26.5 q-47 0 -75.5 -26.5t-28.5 -79.5z" />
<glyph unicode="&#xe6;" horiz-adv-x="1935" d="M90 522q0 111 34 200t95.5 151.5t146.5 96.5t189 34t174 -36t113 -85v96h245v-96q45 59 129 90t173 31q92 0 175 -27t145.5 -82t99 -140t36.5 -204v-43t-2 -47h-729q6 -76 35 -125t78 -78t118.5 -40t155.5 -11q133 0 217 9t119 20v-232q-20 -4 -49 -9t-72 -9t-102.5 -7.5 t-138.5 -3.5q-160 0 -286 36t-208 120q-66 -80 -164 -118t-223 -38q-119 0 -213 42t-158.5 115t-98.5 173.5t-34 216.5zM369 489q0 -147 61.5 -220.5t165.5 -73.5t165.5 73.5t61.5 220.5t-61.5 221t-165.5 74t-165.5 -73.5t-61.5 -221.5zM1139 641h426q0 68 -45 116t-138 48 q-92 0 -153.5 -44t-89.5 -120z" />
<glyph unicode="&#xe7;" horiz-adv-x="1005" d="M90 0zM90 463q0 137 46 238.5t128 169t195.5 100.5t249.5 33q59 0 112 -5.5t97 -11.5v-219q-37 8 -79 12t-104 4q-180 0 -273 -73.5t-93 -239.5q0 -147 94 -211.5t276 -64.5q59 0 104.5 4t80.5 12v-219q-43 -6 -97.5 -11.5t-113.5 -5.5q-139 0 -253 27t-197 85 t-128 151.5t-45 224.5zM449 -190q0 61 47 102t112 41q70 0 111 -45t41 -107q0 -115 -105 -250h-186q47 72 62 130q-43 23 -62.5 56.5t-19.5 72.5z" />
<glyph unicode="&#xe8;" horiz-adv-x="1173" d="M90 0zM90 500q0 98 39 189t109.5 161t169 112t219.5 42q92 0 175 -27t145.5 -82t99 -140t36.5 -204v-43t-2 -47h-729q6 -76 35 -125t78 -78t118.5 -40t155.5 -11q133 0 217 9t119 20v-232q-20 -4 -49 -9t-72 -9t-102 -7.5t-139 -3.5q-139 0 -253 28t-197 89.5t-128 161.5 t-45 246zM216 1505h309l268 -452h-242zM377 641h426q0 68 -45 116t-137 48t-153.5 -44t-90.5 -120z" />
<glyph unicode="&#xe9;" horiz-adv-x="1173" d="M90 0zM90 500q0 98 39 189t109.5 161t169 112t219.5 42q92 0 175 -27t145.5 -82t99 -140t36.5 -204v-43t-2 -47h-729q6 -76 35 -125t78 -78t118.5 -40t155.5 -11q133 0 217 9t119 20v-232q-20 -4 -49 -9t-72 -9t-102 -7.5t-139 -3.5q-139 0 -253 28t-197 89.5t-128 161.5 t-45 246zM377 641h426q0 68 -45 116t-137 48t-153.5 -44t-90.5 -120zM420 1053l268 452h309l-336 -452h-241z" />
<glyph unicode="&#xea;" horiz-adv-x="1173" d="M90 0zM90 500q0 98 39 189t109.5 161t169 112t219.5 42q92 0 175 -27t145.5 -82t99 -140t36.5 -204v-43t-2 -47h-729q6 -76 35 -125t78 -78t118.5 -40t155.5 -11q133 0 217 9t119 20v-232q-20 -4 -49 -9t-72 -9t-102 -7.5t-139 -3.5q-139 0 -253 28t-197 89.5t-128 161.5 t-45 246zM184 1053l268 452h310l268 -452h-221l-203 284l-201 -284h-221zM377 641h426q0 68 -45 116t-137 48t-153.5 -44t-90.5 -120z" />
<glyph unicode="&#xeb;" horiz-adv-x="1173" d="M90 0zM90 500q0 98 39 189t109.5 161t169 112t219.5 42q92 0 175 -27t145.5 -82t99 -140t36.5 -204v-43t-2 -47h-729q6 -76 35 -125t78 -78t118.5 -40t155.5 -11q133 0 217 9t119 20v-232q-20 -4 -49 -9t-72 -9t-102 -7.5t-139 -3.5q-139 0 -253 28t-197 89.5t-128 161.5 t-45 246zM231 1266q0 72 43.5 120t114.5 48q70 0 113 -48.5t43 -119.5q0 -72 -43 -122t-115 -50q-70 0 -113 50t-43 122zM377 641h426q0 68 -45 116t-137 48t-153.5 -44t-90.5 -120zM668 1266q0 72 43 120t114 48q70 0 113 -48.5t43 -119.5q0 -72 -43 -122t-115 -50 q-70 0 -112.5 50t-42.5 122z" />
<glyph unicode="&#xec;" horiz-adv-x="614" d="M-53 1505h309l268 -452h-242zM0 0zM192 0v979h279v-979h-279z" />
<glyph unicode="&#xed;" horiz-adv-x="620" d="M92 0zM93 1053l268 452h309l-336 -452h-241zM137 0v979h279v-979h-279z" />
<glyph unicode="&#xee;" horiz-adv-x="712" d="M-64 1053l268 452h310l268 -452h-221l-203 284l-201 -284h-221zM0 0zM215 0v979h279v-979h-279z" />
<glyph unicode="&#xef;" horiz-adv-x="675" d="M-35 1266q0 72 43.5 120t114.5 48q70 0 113 -48.5t43 -119.5q0 -72 -43 -122t-115 -50q-70 0 -113 50t-43 122zM0 0zM194 0v979h279v-979h-279zM402 1266q0 72 43 120t114 48q70 0 113 -48.5t43 -119.5q0 -72 -43 -122t-115 -50q-70 0 -112.5 50t-42.5 122z" />
<glyph unicode="&#xf0;" horiz-adv-x="1216" d="M100 485q0 104 34 187.5t95.5 141.5t146.5 89t189 31q74 0 140.5 -20.5t113.5 -63.5v94q0 49 -13 94t-36 86l-354 -120v204l211 72q-111 84 -285 154h369q41 -16 77.5 -34t71.5 -40l215 74v-205l-69 -25q43 -74 67.5 -178t24.5 -252v-321q0 -113 -37 -202t-104.5 -150.5 t-163 -93.5t-209.5 -32q-111 0 -201 39t-152.5 107.5t-96.5 162t-34 201.5zM379 459q0 -131 61.5 -197.5t165.5 -66.5t166 66.5t62 197.5t-61.5 197.5t-166.5 66.5q-104 0 -165.5 -66.5t-61.5 -197.5z" />
<glyph unicode="&#xf1;" horiz-adv-x="1136" d="M117 0v645q0 184 120.5 271.5t329.5 87.5t330 -87.5t121 -271.5v-645h-279v616q0 94 -41 134.5t-133 40.5t-133 -40t-41 -135v-616h-274zM117 0zM168 1116v199q41 45 89 65.5t140 20.5q45 0 90 -13.5t89 -29t89 -27.5t90 -12q78 0 125.5 19.5t87.5 60.5v-199 q-41 -45 -89 -65.5t-140 -20.5q-47 0 -92 12.5t-89 27.5t-88 28.5t-89 13.5q-78 0 -125 -19.5t-88 -60.5z" />
<glyph unicode="&#xf2;" horiz-adv-x="1208" d="M90 0zM90 489q0 113 39 207.5t107.5 163t163 106.5t204.5 38q111 0 205 -38t162.5 -106.5t107.5 -163t39 -207.5t-39 -207t-107.5 -162.5t-162.5 -106.5t-205 -38t-205 38t-162.5 106.5t-107.5 163t-39 206.5zM213 1505h309l268 -452h-242zM369 489q0 -147 63 -220.5 t172 -73.5t172.5 73.5t63.5 220.5t-63.5 221t-172.5 74t-172 -73.5t-63 -221.5z" />
<glyph unicode="&#xf3;" horiz-adv-x="1208" d="M90 0zM90 489q0 113 39 207.5t107.5 163t163 106.5t204.5 38q111 0 205 -38t162.5 -106.5t107.5 -163t39 -207.5t-39 -207t-107.5 -162.5t-162.5 -106.5t-205 -38t-205 38t-162.5 106.5t-107.5 163t-39 206.5zM369 489q0 -147 63 -220.5t172 -73.5t172.5 73.5t63.5 220.5 t-63.5 221t-172.5 74t-172 -73.5t-63 -221.5zM418 1053l268 452h309l-336 -452h-241z" />
<glyph unicode="&#xf4;" horiz-adv-x="1208" d="M90 0zM90 489q0 113 39 207.5t107.5 163t163 106.5t204.5 38q111 0 205 -38t162.5 -106.5t107.5 -163t39 -207.5t-39 -207t-107.5 -162.5t-162.5 -106.5t-205 -38t-205 38t-162.5 106.5t-107.5 163t-39 206.5zM180 1053l268 452h310l268 -452h-221l-203 284l-201 -284 h-221zM369 489q0 -147 63 -220.5t172 -73.5t172.5 73.5t63.5 220.5t-63.5 221t-172.5 74t-172 -73.5t-63 -221.5z" />
<glyph unicode="&#xf5;" horiz-adv-x="1208" d="M90 0zM90 489q0 113 39 207.5t107.5 163t163 106.5t204.5 38q111 0 205 -38t162.5 -106.5t107.5 -163t39 -207.5t-39 -207t-107.5 -162.5t-162.5 -106.5t-205 -38t-205 38t-162.5 106.5t-107.5 163t-39 206.5zM203 1116v199q41 45 89 65.5t140 20.5q45 0 90 -13.5t89 -29 t89 -27.5t90 -12q78 0 125.5 19.5t87.5 60.5v-199q-41 -45 -89 -65.5t-140 -20.5q-47 0 -92 12.5t-89 27.5t-88 28.5t-89 13.5q-78 0 -125 -19.5t-88 -60.5zM369 489q0 -147 63 -220.5t172 -73.5t172.5 73.5t63.5 220.5t-63.5 221t-172.5 74t-172 -73.5t-63 -221.5z" />
<glyph unicode="&#xf6;" horiz-adv-x="1208" d="M90 0zM90 489q0 113 39 207.5t107.5 163t163 106.5t204.5 38q111 0 205 -38t162.5 -106.5t107.5 -163t39 -207.5t-39 -207t-107.5 -162.5t-162.5 -106.5t-205 -38t-205 38t-162.5 106.5t-107.5 163t-39 206.5zM229 1266q0 72 43.5 120t114.5 48q70 0 113 -48.5t43 -119.5 q0 -72 -43 -122t-115 -50q-70 0 -113 50t-43 122zM369 489q0 -147 63 -220.5t172 -73.5t172.5 73.5t63.5 220.5t-63.5 221t-172.5 74t-172 -73.5t-63 -221.5zM666 1266q0 72 43 120t114 48q70 0 113 -48.5t43 -119.5q0 -72 -43 -122t-115 -50q-70 0 -112.5 50t-42.5 122z " />
<glyph unicode="&#xf7;" horiz-adv-x="1476" d="M123 68zM123 659v207h1231v-207h-1231zM582 239q0 72 43 120t115 48q70 0 112.5 -48t42.5 -120t-42.5 -122t-114.5 -50q-70 0 -113 50.5t-43 121.5zM582 1290q0 72 43 120t115 48q70 0 112.5 -48t42.5 -120t-42.5 -122t-114.5 -50q-70 0 -113 50.5t-43 121.5z" />
<glyph unicode="&#xf8;" horiz-adv-x="1208" d="M90 -86l141 211q-66 68 -103.5 161t-37.5 203q0 113 39 207.5t107.5 163t163 106.5t204.5 38q51 0 99.5 -8.5t91.5 -24.5l63 94h260l-141 -211q66 -68 103.5 -161t37.5 -204q0 -113 -39 -207t-107.5 -162.5t-162.5 -106.5t-205 -38q-53 0 -101 8.5t-91 24.5l-64 -94h-258 zM369 489q0 -72 16 -133l281 420q-16 4 -30.5 6t-31.5 2q-109 0 -172 -73.5t-63 -221.5zM541 201q31 -6 63 -6q109 0 172.5 73.5t63.5 220.5q0 76 -19 132z" />
<glyph unicode="&#xf9;" horiz-adv-x="1124" d="M117 0zM117 334v645h278v-617q0 -94 39 -134t129 -40t129 40t39 134v617h275v-645q0 -92 -33 -160t-91.5 -112t-140.5 -65.5t-180 -21.5t-180 21.5t-140.5 65.5t-91 112t-32.5 160zM170 1505h309l268 -452h-242z" />
<glyph unicode="&#xfa;" horiz-adv-x="1124" d="M117 0zM117 334v645h278v-617q0 -94 39 -134t129 -40t129 40t39 134v617h275v-645q0 -92 -33 -160t-91.5 -112t-140.5 -65.5t-180 -21.5t-180 21.5t-140.5 65.5t-91 112t-32.5 160zM375 1053l268 452h309l-336 -452h-241z" />
<glyph unicode="&#xfb;" horiz-adv-x="1124" d="M117 0zM117 334v645h278v-617q0 -94 39 -134t129 -40t129 40t39 134v617h275v-645q0 -92 -33 -160t-91.5 -112t-140.5 -65.5t-180 -21.5t-180 21.5t-140.5 65.5t-91 112t-32.5 160zM139 1053l268 452h310l268 -452h-221l-203 284l-201 -284h-221z" />
<glyph unicode="&#xfc;" horiz-adv-x="1124" d="M117 0zM117 334v645h278v-617q0 -94 39 -134t129 -40t129 40t39 134v617h275v-645q0 -92 -33 -160t-91.5 -112t-140.5 -65.5t-180 -21.5t-180 21.5t-140.5 65.5t-91 112t-32.5 160zM186 1266q0 72 43.5 120t114.5 48q70 0 113 -48.5t43 -119.5q0 -72 -43 -122t-115 -50 q-70 0 -113 50t-43 122zM623 1266q0 72 43 120t114 48q70 0 113 -48.5t43 -119.5q0 -72 -43 -122t-115 -50q-70 0 -112.5 50t-42.5 122z" />
<glyph unicode="&#xfd;" horiz-adv-x="1079" d="M10 0zM10 979h305l238 -631l215 631h299l-438 -1129q-27 -72 -64 -127t-90 -93t-126 -58.5t-171 -20.5h-42.5t-45.5 5v221q18 -2 33.5 -3t32.5 -1q57 0 98 10t69.5 36.5t51 72t47.5 116.5zM353 1053l268 452h309l-336 -452h-241z" />
<glyph unicode="&#xfe;" horiz-adv-x="1208" d="M123 -449v1883h278v-521q47 47 114 69t140 22q109 0 195 -37t145.5 -104.5t91 -162t31.5 -211.5t-31.5 -211t-91 -161.5t-145.5 -104.5t-195 -37q-74 0 -140 21.5t-114 69.5v-515h-278zM387 498q0 -154 61.5 -228.5t165.5 -74.5t166 73.5t62 220.5q0 55 -13.5 107.5 t-41 94.5t-70.5 67.5t-103 25.5q-104 0 -165.5 -71.5t-61.5 -214.5z" />
<glyph unicode="&#xff;" horiz-adv-x="1079" d="M10 0zM10 979h305l238 -631l215 631h299l-438 -1129q-27 -72 -64 -127t-90 -93t-126 -58.5t-171 -20.5h-42.5t-45.5 5v221q18 -2 33.5 -3t32.5 -1q57 0 98 10t69.5 36.5t51 72t47.5 116.5zM163 1266q0 72 43.5 120t114.5 48q70 0 113 -48.5t43 -119.5q0 -72 -43 -122 t-115 -50q-70 0 -113 50t-43 122zM600 1266q0 72 43 120t114 48q70 0 113 -48.5t43 -119.5q0 -72 -43 -122t-115 -50q-70 0 -112.5 50t-42.5 122z" />
<glyph unicode="&#x152;" horiz-adv-x="1951" d="M90 705q0 356 168 554.5t492 198.5q104 0 183 -6t144 -18h795v-244h-664v-170h645v-232h-645v-544h668v-244h-799q-66 -12 -144.5 -18.5t-182.5 -6.5q-170 0 -294 59.5t-205 160t-121 232.5t-40 278zM389 748q0 -113 16.5 -212.5t60.5 -174t123 -117.5t204 -43 q47 0 77.5 6t47.5 12v995q-16 6 -47 12.5t-78 6.5q-221 0 -312.5 -124t-91.5 -361z" />
<glyph unicode="&#x153;" horiz-adv-x="1921" d="M90 489q0 113 39 207.5t107.5 163t163 106.5t204.5 38q121 0 216 -45.5t161 -122.5q68 76 167 122t226 46q92 0 175 -27t145.5 -82t99.5 -140t37 -204v-43t-2 -47h-729q6 -76 34.5 -125t78 -78t119 -40t155.5 -11q133 0 217 9t119 20v-232q-20 -4 -49 -9t-72 -9 t-102.5 -7.5t-139.5 -3.5q-160 0 -283.5 37t-201.5 123q-66 -76 -160 -118t-211 -42q-111 0 -205 38t-162.5 106.5t-107.5 163t-39 206.5zM369 489q0 -147 63 -220.5t172 -73.5t172.5 73.5t63.5 220.5t-63.5 221t-172.5 74t-172 -73.5t-63 -221.5zM1124 641h426 q0 68 -45 116t-137 48t-153.5 -44t-90.5 -120z" />
<glyph unicode="&#x178;" d="M0 0zM0 1434h342l276 -512l265 512h321l-450 -799v-635h-293v633zM227 1721q0 72 43.5 120t114.5 48q70 0 113 -48.5t43 -119.5q0 -72 -43 -122t-115 -50q-70 0 -113 50t-43 122zM664 1721q0 72 43 120t114 48q70 0 113 -48.5t43 -119.5q0 -72 -43 -122t-115 -50 q-70 0 -112.5 50t-42.5 122z" />
<glyph unicode="&#x2c6;" horiz-adv-x="935" d="M45 1053l268 452h310l268 -452h-221l-203 284l-201 -284h-221z" />
<glyph unicode="&#x2dc;" horiz-adv-x="862" d="M31 1116v199q41 45 89 65.5t140 20.5q45 0 90 -13.5t89 -29t89 -27.5t90 -12q78 0 125.5 19.5t87.5 60.5v-199q-41 -45 -89 -65.5t-140 -20.5q-47 0 -92 12.5t-89 27.5t-88 28.5t-89 13.5q-78 0 -125 -19.5t-88 -60.5z" />
<glyph unicode="&#x2000;" horiz-adv-x="980" />
<glyph unicode="&#x2001;" horiz-adv-x="1960" />
<glyph unicode="&#x2002;" horiz-adv-x="980" />
<glyph unicode="&#x2003;" horiz-adv-x="1960" />
<glyph unicode="&#x2004;" horiz-adv-x="653" />
<glyph unicode="&#x2005;" horiz-adv-x="490" />
<glyph unicode="&#x2006;" horiz-adv-x="326" />
<glyph unicode="&#x2007;" horiz-adv-x="326" />
<glyph unicode="&#x2008;" horiz-adv-x="245" />
<glyph unicode="&#x2009;" horiz-adv-x="392" />
<glyph unicode="&#x200a;" horiz-adv-x="108" />
<glyph unicode="&#x2010;" horiz-adv-x="561" d="M51 553v205h459v-205h-459z" />
<glyph unicode="&#x2011;" horiz-adv-x="561" d="M51 553v205h459v-205h-459z" />
<glyph unicode="&#x2012;" horiz-adv-x="561" d="M51 553v205h459v-205h-459z" />
<glyph unicode="&#x2013;" horiz-adv-x="903" d="M51 553v205h801v-205h-801z" />
<glyph unicode="&#x2014;" horiz-adv-x="1306" d="M51 553v205h1204v-205h-1204z" />
<glyph unicode="&#x2018;" horiz-adv-x="552" d="M123 1128q0 147 149 330h183q-41 -59 -64.5 -105t-36.5 -93q43 -23 63.5 -62t20.5 -80q0 -66 -48 -110.5t-114 -44.5q-72 0 -112.5 49t-40.5 116z" />
<glyph unicode="&#x2019;" horiz-adv-x="552" d="M98 963q41 59 64.5 105t36.5 93q-43 23 -63.5 62t-20.5 80q0 66 48 110.5t113 44.5q72 0 113 -49t41 -117q0 -147 -149 -329h-183z" />
<glyph unicode="&#x201a;" horiz-adv-x="552" d="M98 -182q41 59 64.5 105t36.5 93q-43 23 -63.5 62t-20.5 80q0 66 48 110.5t113 44.5q72 0 113 -49t41 -117q0 -147 -149 -329h-183z" />
<glyph unicode="&#x201c;" horiz-adv-x="1105" d="M123 963zM123 1128q0 147 149 330h183q-41 -59 -64.5 -105t-36.5 -93q43 -23 63.5 -62t20.5 -80q0 -66 -48 -110.5t-114 -44.5q-72 0 -112.5 49t-40.5 116zM676 1128q0 147 149 330h183q-41 -59 -64.5 -105t-36.5 -93q43 -23 63.5 -62t20.5 -80q0 -66 -48 -110.5 t-114 -44.5q-72 0 -112.5 49t-40.5 116z" />
<glyph unicode="&#x201d;" horiz-adv-x="1105" d="M98 963q41 59 64.5 105t36.5 93q-43 23 -63.5 62t-20.5 80q0 66 48 110.5t113 44.5q72 0 113 -49t41 -117q0 -147 -149 -329h-183zM98 963zM651 963q41 59 64.5 105t36.5 93q-43 23 -63.5 62t-20.5 80q0 66 48 110.5t113 44.5q72 0 113 -49t41 -117q0 -147 -149 -329 h-183z" />
<glyph unicode="&#x201e;" horiz-adv-x="1105" d="M98 0zM98 -182q41 59 64.5 105t36.5 93q-43 23 -63.5 62t-20.5 80q0 66 48 110.5t113 44.5q72 0 113 -49t41 -117q0 -147 -149 -329h-183zM651 -182q41 59 64.5 105t36.5 93q-43 23 -63.5 62t-20.5 80q0 66 48 110.5t113 44.5q72 0 113 -49t41 -117q0 -147 -149 -329 h-183z" />
<glyph unicode="&#x2022;" horiz-adv-x="716" d="M123 709q0 147 63.5 221t171.5 74q109 0 172.5 -74t63.5 -221t-63.5 -221t-172.5 -74t-172 73.5t-63 221.5z" />
<glyph unicode="&#x2026;" horiz-adv-x="1609" d="M143 0zM143 147q0 72 43 120t115 48q70 0 112.5 -48t42.5 -120t-42.5 -122t-114.5 -50q-70 0 -113 50.5t-43 121.5zM647 147q0 72 43 120t115 48q70 0 112.5 -48t42.5 -120t-42.5 -122t-114.5 -50q-70 0 -113 50.5t-43 121.5zM1151 147q0 72 43 120t115 48 q70 0 112.5 -48t42.5 -120t-42.5 -122t-114.5 -50q-70 0 -113 50.5t-43 121.5z" />
<glyph unicode="&#x202f;" horiz-adv-x="392" />
<glyph unicode="&#x2039;" horiz-adv-x="546" d="M47 518v309l453 269v-222l-285 -202l285 -201v-221z" />
<glyph unicode="&#x203a;" horiz-adv-x="546" d="M47 250v221l285 201l-285 202v222l453 -269v-309z" />
<glyph unicode="&#x205f;" horiz-adv-x="490" />
<glyph unicode="&#x20ac;" horiz-adv-x="1267" d="M41 469l41 152h100q-2 14 -2 27.5v29.5q0 27 1 52.5t3 49.5h-143l41 154h129q35 133 105.5 231.5t168 164t215 97t248.5 31.5q72 0 138.5 -4t130.5 -10l-72 -238q-43 4 -87 6t-87 2q-174 0 -291 -67.5t-168 -212.5h549l-47 -154h-535q-4 -23 -4 -45v-47v-34.5t2 -32.5 h488l-47 -152h-406q51 -131 169 -190.5t294 -59.5q72 0 125 7t96 20v-246q-49 -10 -113.5 -17.5t-130.5 -7.5q-137 0 -259 28t-220 87.5t-169 152.5t-101 226h-162z" />
<glyph unicode="&#x2122;" horiz-adv-x="1775" d="M55 1255v179h682v-179h-237v-712h-207v712h-238zM862 543v891h211l187 -367l188 367h205v-891h-191v501l-205 -385l-200 385v-501h-195z" />
<glyph unicode="&#x25fc;" horiz-adv-x="983" d="M0 0v983h983v-983h-983z" />
<glyph unicode="&#xfb01;" horiz-adv-x="1267" d="M18 0zM18 764v215h136v82q0 94 28.5 169t80.5 125t125 76.5t161 26.5q49 0 92 -6t68 -16v-236q-29 10 -58.5 16.5t-72.5 6.5q-70 0 -108 -46.5t-38 -115.5v-82h182v-215h-182v-764h-278v764h-136zM832 1266q0 72 43 120t115 48q70 0 112.5 -48.5t42.5 -119.5 q0 -72 -42.5 -122t-114.5 -50q-70 0 -113 50t-43 122zM846 0v979h279v-979h-279z" />
<glyph unicode="&#xfb02;" horiz-adv-x="1232" d="M18 0zM18 764v215h136v82q0 94 28.5 169t80.5 125t125 76.5t161 26.5q49 0 92 -6t68 -16v-236q-29 10 -58.5 16.5t-72.5 6.5q-70 0 -108 -46.5t-38 -115.5v-82h182v-215h-182v-764h-278v764h-136zM832 0v1434h278v-1434h-278z" />
</font>
</defs>
</svg>
